<svg xmlns="http://www.w3.org/2000/svg" width="1395" height="967" viewBox="0 0 1395 967">
  <g id="icons_mob" transform="translate(-1261 -2458)">
    <rect id="Rectangle_2" data-name="Rectangle 2" width="1395" height="967" transform="translate(1261 2458)" fill="none"/>
    <g id="Group_5" data-name="Group 5" transform="translate(1795 2543)">
      <g id="Ellipse_1" data-name="Ellipse 1" transform="translate(66.393 0)" fill="#fff" stroke="#f8beae" stroke-width="5">
        <ellipse cx="117.562" cy="118.13" rx="117.562" ry="118.13" stroke="none"/>
        <ellipse cx="117.562" cy="118.13" rx="115.062" ry="115.63" fill="none"/>
      </g>
      <g id="noun_drop_2985385_1_" data-name="noun_drop_2985385 (1)" transform="translate(133.988 68.611)">
        <path id="Path_29" data-name="Path 29" d="M113.362,82.169c-12.937,0-23.462-11.347-23.462-25.3,0-11.939,16.361-35.265,21.362-42.129a2.583,2.583,0,0,1,4.2,0c5.009,6.864,21.362,30.189,21.362,42.129C136.82,70.822,126.295,82.169,113.362,82.169Zm0-63.764c-9.275,12.921-19.613,30.2-19.613,38.467,0,11.826,8.8,21.448,19.613,21.448s19.609-9.622,19.609-21.448C132.971,48.6,122.633,31.326,113.362,18.405Z" transform="translate(-63.715 -13.668)" stroke="#000" stroke-width="2"/>
        <path id="Path_30" data-name="Path 30" d="M120.045,211.377a24.266,24.266,0,0,1-12.812-3.3,20.771,20.771,0,0,0-11.047-2.863,20.8,20.8,0,0,0-11.047,2.863,24.266,24.266,0,0,1-12.812,3.3,24.265,24.265,0,0,1-12.812-3.3,20.776,20.776,0,0,0-11.051-2.863,20.792,20.792,0,0,0-11.047,2.863,24.21,24.21,0,0,1-12.812,3.3,1.924,1.924,0,0,1,0-3.849,20.764,20.764,0,0,0,11.047-2.867,24.306,24.306,0,0,1,12.812-3.292,24.333,24.333,0,0,1,12.816,3.292,20.711,20.711,0,0,0,11.047,2.867,20.754,20.754,0,0,0,11.047-2.867,24.25,24.25,0,0,1,12.812-3.292A24.306,24.306,0,0,1,109,204.662a20.732,20.732,0,0,0,11.047,2.867,1.924,1.924,0,0,1,0,3.849Z" transform="translate(-22.68 -128.253)" stroke="#000" stroke-width="2"/>
        <path id="Path_31" data-name="Path 31" d="M120.045,241.011a24.266,24.266,0,0,1-12.812-3.3,20.77,20.77,0,0,0-11.047-2.863,20.8,20.8,0,0,0-11.047,2.863,24.266,24.266,0,0,1-12.812,3.3,24.266,24.266,0,0,1-12.812-3.3,20.775,20.775,0,0,0-11.051-2.863,20.792,20.792,0,0,0-11.047,2.863,24.211,24.211,0,0,1-12.812,3.3,1.924,1.924,0,0,1,0-3.849A20.8,20.8,0,0,0,35.652,234.3,24.268,24.268,0,0,1,48.464,231a24.333,24.333,0,0,1,12.816,3.292,20.746,20.746,0,0,0,11.047,2.867,20.789,20.789,0,0,0,11.047-2.867A24.251,24.251,0,0,1,96.186,231,24.306,24.306,0,0,1,109,234.292a20.767,20.767,0,0,0,11.047,2.867,1.924,1.924,0,1,1,0,3.849Z" transform="translate(-22.68 -146.34)" stroke="#000" stroke-width="2"/>
        <path id="Path_32" data-name="Path 32" d="M120.045,270.653a24.27,24.27,0,0,1-12.812-3.292A20.77,20.77,0,0,0,96.186,264.5a20.8,20.8,0,0,0-11.047,2.863,24.27,24.27,0,0,1-12.812,3.292,24.27,24.27,0,0,1-12.812-3.292A20.774,20.774,0,0,0,48.464,264.5a20.791,20.791,0,0,0-11.047,2.863A24.214,24.214,0,0,1,24.6,270.653a1.924,1.924,0,0,1,0-3.849,20.8,20.8,0,0,0,11.047-2.863,24.306,24.306,0,0,1,12.812-3.292,24.333,24.333,0,0,1,12.816,3.292A20.748,20.748,0,0,0,72.327,266.8a20.791,20.791,0,0,0,11.047-2.863,24.251,24.251,0,0,1,12.812-3.292A24.306,24.306,0,0,1,109,263.942a20.77,20.77,0,0,0,11.047,2.863,1.924,1.924,0,0,1,0,3.849Z" transform="translate(-22.68 -164.441)" stroke="#000" stroke-width="2"/>
      </g>
      <path id="Path_52" data-name="Path 52" d="M3.843-13.661V-51.2h9.175a18.187,18.187,0,0,1,7.438,1.228,7.239,7.239,0,0,1,3.777,3.846,17.262,17.262,0,0,1,1.112,6.7v13.67A18.093,18.093,0,0,1,24.233-18.9a7.427,7.427,0,0,1-3.73,3.962,17,17,0,0,1-7.3,1.274Zm7.646-5.329h1.622a5.215,5.215,0,0,0,3.035-.672,3.012,3.012,0,0,0,1.135-1.993,19.344,19.344,0,0,0,.232-3.267V-40.4a13.1,13.1,0,0,0-.3-3.128,2.728,2.728,0,0,0-1.2-1.738,5.853,5.853,0,0,0-2.943-.556H11.489ZM30.4-13.661V-51.2H46.708l.046,5.283L38-45.96l.046,10.01,6.719.046v5.283L38-30.668l.046,11.817H46.8l.046,5.19Zm20.3,0V-51.2H67.005l.046,5.283-8.758-.046.046,10.01,6.719.046v5.283l-6.766-.046.046,11.817H67.1l.046,5.19Zm20.3,0V-51.2H82.9a10.636,10.636,0,0,1,5.515,1.274,7.744,7.744,0,0,1,3.174,3.684A14.672,14.672,0,0,1,92.631-40.4a12.235,12.235,0,0,1-1.367,6.3,7.562,7.562,0,0,1-3.73,3.221,14.451,14.451,0,0,1-5.422.95H78.637v16.266ZM78.637-35.3h2.688a5.107,5.107,0,0,0,2.572-.533,2.713,2.713,0,0,0,1.228-1.691,11.256,11.256,0,0,0,.324-2.966,13.65,13.65,0,0,0-.255-2.873,2.943,2.943,0,0,0-1.135-1.807,4.73,4.73,0,0,0-2.78-.649H78.637Zm29.241,21.641V-51.2h5.329l8.341,19.556V-51.2h6.3v37.536h-5.1l-8.341-20.761v20.761Zm36.146.51a12.4,12.4,0,0,1-6.534-1.483,8.249,8.249,0,0,1-3.452-4.24,18.691,18.691,0,0,1-1.043-6.6V-39.472a18.5,18.5,0,0,1,1.043-6.58,8.028,8.028,0,0,1,3.452-4.171,12.729,12.729,0,0,1,6.534-1.437,12.8,12.8,0,0,1,6.6,1.46A8.118,8.118,0,0,1,154.1-46.03a18.3,18.3,0,0,1,1.043,6.557v13.995a18.691,18.691,0,0,1-1.043,6.6,8.216,8.216,0,0,1-3.476,4.24A12.636,12.636,0,0,1,144.023-13.151Zm0-5.515a3.04,3.04,0,0,0,2.178-.672,3.377,3.377,0,0,0,.927-1.807,12.158,12.158,0,0,0,.232-2.433V-41.326a11.814,11.814,0,0,0-.232-2.41,3.361,3.361,0,0,0-.927-1.784,3.04,3.04,0,0,0-2.178-.672,2.893,2.893,0,0,0-2.085.672,3.361,3.361,0,0,0-.927,1.784,11.814,11.814,0,0,0-.232,2.41v17.748a13.468,13.468,0,0,0,.209,2.433,3.251,3.251,0,0,0,.9,1.807A2.965,2.965,0,0,0,144.023-18.666Zm26.785,5.515a12.624,12.624,0,0,1-6.627-1.46,7.755,7.755,0,0,1-3.313-4.217,20.687,20.687,0,0,1-.95-6.7V-51.2h7.554v26.738a17.806,17.806,0,0,0,.209,2.734,4.26,4.26,0,0,0,.927,2.178,2.749,2.749,0,0,0,2.2.834,2.81,2.81,0,0,0,2.248-.834,4.117,4.117,0,0,0,.9-2.178,19.989,19.989,0,0,0,.185-2.734V-51.2H181.7v25.673a20.687,20.687,0,0,1-.95,6.7,7.755,7.755,0,0,1-3.313,4.217A12.624,12.624,0,0,1,170.808-13.151Zm16.219-.51V-51.2h9.732a21.742,21.742,0,0,1,6.511.857A7.6,7.6,0,0,1,207.44-47.3a10.724,10.724,0,0,1,1.46,6.024,19.143,19.143,0,0,1-.394,4.1,7.915,7.915,0,0,1-1.39,3.1,6.837,6.837,0,0,1-2.8,2.108l5.19,18.3h-7.832l-4.31-17.007h-2.688v17.007Zm7.646-21.548H196.9a5.956,5.956,0,0,0,2.919-.6,3.3,3.3,0,0,0,1.506-1.83,9.068,9.068,0,0,0,.44-3.035,6.917,6.917,0,0,0-.95-3.962q-.95-1.367-3.545-1.367h-2.6ZM214-13.661V-51.2h7.6v37.536Zm23.078.51a11.9,11.9,0,0,1-5.793-1.274,8.1,8.1,0,0,1-3.5-3.846,17.773,17.773,0,0,1-1.367-6.557L233-25.941a19.173,19.173,0,0,0,.487,3.869,4.7,4.7,0,0,0,1.2,2.317,2.825,2.825,0,0,0,2.016.765,2.122,2.122,0,0,0,2.016-.927,4.2,4.2,0,0,0,.533-2.132,6.67,6.67,0,0,0-1.135-3.962,18.9,18.9,0,0,0-2.989-3.221l-3.893-3.383A15.682,15.682,0,0,1,227.83-36.6a10.542,10.542,0,0,1-1.321-5.468q0-4.634,2.711-7.113a10.6,10.6,0,0,1,7.438-2.479,10.137,10.137,0,0,1,4.634.927,7.084,7.084,0,0,1,2.8,2.479,10.172,10.172,0,0,1,1.39,3.383,22.827,22.827,0,0,1,.487,3.638l-6.534.973a29.122,29.122,0,0,0-.3-3.012,4.117,4.117,0,0,0-.834-2.039,2.318,2.318,0,0,0-1.877-.741,2.212,2.212,0,0,0-1.993,1,3.95,3.95,0,0,0-.649,2.2,5.517,5.517,0,0,0,.9,3.267,16,16,0,0,0,2.479,2.665l3.8,3.337a21.6,21.6,0,0,1,4.055,4.657,11.673,11.673,0,0,1,1.691,6.464,9.529,9.529,0,0,1-1.2,4.773,8.614,8.614,0,0,1-3.36,3.337A10.231,10.231,0,0,1,237.075-13.151Zm13.161-.51V-51.2h7.6l.046,15.431h6.627V-51.2h7.646v37.536h-7.646V-30.3l-6.673-.046.046,16.683Zm27.573,0,.649-37.536h8.11l4.634,23.68,4.958-23.68h7.832l.649,37.536h-5.561l-.6-25.441L293.7-13.661H288.93l-5-25.626-.51,25.626Zm31.929,0V-51.2h16.312l.046,5.283-8.758-.046.046,10.01,6.719.046v5.283l-6.766-.046.046,11.817h8.758l.046,5.19Zm20.3,0V-51.2h5.329L343.7-31.641V-51.2h6.3v37.536h-5.1l-8.341-20.761v20.761Zm29.241,0L359.228-45.5l-5.793-.046V-51.2h19.185v5.7l-5.746-.046.046,31.882Z" transform="translate(-3.843 330.794)" fill="#131313"/>
    </g>
    <g id="Group_6" data-name="Group 6" transform="translate(2353 2543)">
      <g id="Ellipse_2" data-name="Ellipse 2" transform="translate(2.285 0)" fill="#fff" stroke="#f8beae" stroke-width="5">
        <ellipse cx="118.13" cy="118.13" rx="118.13" ry="118.13" stroke="none"/>
        <ellipse cx="118.13" cy="118.13" rx="115.63" ry="115.63" fill="none"/>
      </g>
      <path id="Path_53" data-name="Path 53" d="M6.595-13.661,6.549-45.5.756-45.543V-51.2H19.941v5.7l-5.746-.046.046,31.882Zm16.729,0V-51.2h9.732a21.741,21.741,0,0,1,6.511.857A7.6,7.6,0,0,1,43.737-47.3,10.724,10.724,0,0,1,45.2-41.28a19.144,19.144,0,0,1-.394,4.1,7.915,7.915,0,0,1-1.39,3.1,6.837,6.837,0,0,1-2.8,2.108l5.19,18.3H37.967l-4.31-17.007H30.97v17.007ZM30.97-35.209h2.224a5.956,5.956,0,0,0,2.919-.6,3.3,3.3,0,0,0,1.506-1.83,9.069,9.069,0,0,0,.44-3.035,6.917,6.917,0,0,0-.95-3.962q-.95-1.367-3.545-1.367h-2.6ZM50.2-13.661V-51.2H66.513l.046,5.283L57.8-45.96l.046,10.01,6.719.046v5.283L57.8-30.668l.046,11.817h8.758l.046,5.19Zm18.444,0L75.92-51.2H84.4L91.63-13.661H84.54L83.2-21.909H77.264l-1.437,8.249ZM77.959-26.59h4.5L80.184-41.743ZM97.1-13.661,97.052-45.5l-5.793-.046V-51.2h19.185v5.7l-5.746-.046.046,31.882Zm26.46.51a11.9,11.9,0,0,1-5.793-1.274,8.1,8.1,0,0,1-3.5-3.846,17.773,17.773,0,0,1-1.367-6.557l6.58-1.112a19.173,19.173,0,0,0,.487,3.869,4.7,4.7,0,0,0,1.2,2.317,2.825,2.825,0,0,0,2.016.765,2.122,2.122,0,0,0,2.016-.927,4.2,4.2,0,0,0,.533-2.132,6.67,6.67,0,0,0-1.135-3.962,18.9,18.9,0,0,0-2.989-3.221l-3.893-3.383a15.682,15.682,0,0,1-3.406-3.985,10.542,10.542,0,0,1-1.321-5.468q0-4.634,2.711-7.113a10.6,10.6,0,0,1,7.438-2.479,10.137,10.137,0,0,1,4.634.927,7.084,7.084,0,0,1,2.8,2.479,10.173,10.173,0,0,1,1.39,3.383,22.829,22.829,0,0,1,.487,3.638l-6.534.973a29.109,29.109,0,0,0-.3-3.012,4.116,4.116,0,0,0-.834-2.039,2.318,2.318,0,0,0-1.877-.741,2.212,2.212,0,0,0-1.993,1,3.95,3.95,0,0,0-.649,2.2,5.517,5.517,0,0,0,.9,3.267,16,16,0,0,0,2.479,2.665l3.8,3.337a21.6,21.6,0,0,1,4.055,4.657,11.673,11.673,0,0,1,1.691,6.464,9.529,9.529,0,0,1-1.2,4.773,8.613,8.613,0,0,1-3.36,3.337A10.231,10.231,0,0,1,123.558-13.151Zm22.8-.51L153.633-51.2h8.48l7.229,37.536h-7.09l-1.344-8.249h-5.932l-1.437,8.249Zm9.314-12.929h4.5L157.9-41.743ZM183.06-13.151a12.037,12.037,0,0,1-6.6-1.576,8.311,8.311,0,0,1-3.406-4.379,19.843,19.843,0,0,1-.973-6.511V-39.1a20.489,20.489,0,0,1,.973-6.7,8.089,8.089,0,0,1,3.406-4.333,12.326,12.326,0,0,1,6.6-1.529,12.542,12.542,0,0,1,6.325,1.344,7.374,7.374,0,0,1,3.244,3.8,15.742,15.742,0,0,1,.95,5.7v3.151h-7.414v-3.522a20.05,20.05,0,0,0-.139-2.433,3.37,3.37,0,0,0-.765-1.854,2.741,2.741,0,0,0-2.155-.718,2.926,2.926,0,0,0-2.224.741,3.533,3.533,0,0,0-.88,1.923,16.969,16.969,0,0,0-.185,2.618v17.053a13.2,13.2,0,0,0,.255,2.757,3.207,3.207,0,0,0,.973,1.807,3.047,3.047,0,0,0,2.062.626,2.674,2.674,0,0,0,2.109-.718A3.583,3.583,0,0,0,186-21.307a19.113,19.113,0,0,0,.162-2.549v-3.661h7.414v3.1a16.83,16.83,0,0,1-.927,5.816,7.825,7.825,0,0,1-3.2,3.985A11.806,11.806,0,0,1,183.06-13.151Zm15.2-.51V-51.2h5.329l8.341,19.556V-51.2h6.3v37.536h-5.1l-8.341-20.761v20.761Zm25.673,0V-51.2h16.312l.046,5.283-8.758-.046.046,10.01,6.719.046v5.283l-6.766-.046.046,11.817h8.758l.046,5.19Z" transform="translate(-0.756 330.794)" fill="#131313"/>
      <g id="noun_Acne_2047479" transform="translate(56.818 63.785)">
        <path id="Path_34" data-name="Path 34" d="M35.463,96.6,22.274,89.059l1.794-7.167a2.2,2.2,0,0,0-.577-2.085l-3.431-3.431,1.188-3.561L34.8,74.75a2.129,2.129,0,0,0,.312.022,2.222,2.222,0,0,0,.981-.22l4.391-2.2-1.963-3.93-3.778,1.89L20.406,68.27,17.75,66.942l1.976-13.8a2.2,2.2,0,0,0-1.045-2.2L9.39,45.356l12.346-26.74a2.208,2.208,0,0,0,.119-1.524L17.465,1.725,13.241,2.932l4.171,14.583L5.4,43.527a4.39,4.39,0,0,0,1.728,5.6l8.037,4.83L13.179,67.881a2.2,2.2,0,0,0,1.192,2.281l2.687,1.343-1.592,4.779A2.2,2.2,0,0,0,16,78.53l3.512,3.512-1.491,5.962A4.406,4.406,0,0,0,20.1,92.881l13.218,7.538a4.39,4.39,0,0,0,3.036.492,2.213,2.213,0,0,0,.27-.07L53.089,95.3l3.879,27.138L48.78,132.672l3.429,2.744L60.99,124.44a2.2,2.2,0,0,0,.459-1.684L57.3,93.871l11.435-3.848-1.4-4.171Z" transform="translate(-5 -1.725)" stroke="#000" stroke-width="1"/>
        <path id="Path_35" data-name="Path 35" d="M13.886,28.729l1.963,3.93a6.292,6.292,0,0,0,2.219-9.4L14.428,18.4l-3.512,2.634,3.64,4.854a1.9,1.9,0,0,1-.659,2.841Z" transform="translate(2.071 18.206)" stroke="#000" stroke-width="1"/>
        <path id="Path_36" data-name="Path 36" d="M38.925,10.852,24.3,5h0l-1.842-.738-5.488-2.2L15.346,6.15,18.76,7.515a18.35,18.35,0,0,0,.378,10.6l-3.791,1.517,1.629,4.079,21.953-8.781a2.2,2.2,0,0,0,0-4.079ZM24.617,12.569A5.124,5.124,0,0,1,23.108,16.3a15.147,15.147,0,0,1-.325-6.987A5.488,5.488,0,0,1,24.617,12.569Zm4.3,1.635a8.122,8.122,0,0,0,.072-2.039c-.02-.22-.079-.4-.114-.6l3.324,1.33Z" transform="translate(7.366 -1.311)" stroke="#000" stroke-width="1"/>
        <path id="Path_37" data-name="Path 37" d="M64.734,14A30.734,30.734,0,1,0,95.467,44.734,30.734,30.734,0,0,0,64.734,14Zm0,57.077A26.343,26.343,0,1,1,91.077,44.734,26.343,26.343,0,0,1,64.734,71.077Z" transform="translate(29.662 12.947)" stroke="#000" stroke-width="1"/>
        <rect id="Rectangle_2-2" data-name="Rectangle 2" width="4.391" height="4.391" transform="translate(39.514 35.728)" stroke="#000" stroke-width="1"/>
        <rect id="Rectangle_3" data-name="Rectangle 3" width="4.391" height="4.391" transform="translate(46.1 48.899)" stroke="#000" stroke-width="1"/>
        <rect id="Rectangle_4" data-name="Rectangle 4" width="4.391" height="4.391" transform="translate(52.686 31.337)" stroke="#000" stroke-width="1"/>
        <rect id="Rectangle_5" data-name="Rectangle 5" width="4.391" height="4.391" transform="translate(32.929 53.29)" stroke="#000" stroke-width="1"/>
        <path id="Path_38" data-name="Path 38" d="M67.251,33.23,64.7,30.156a8.781,8.781,0,0,0-14.6,1.7l-.261.525A4.371,4.371,0,0,1,45.906,34.8H39v4.391h6.906a8.735,8.735,0,0,0,7.855-4.856l.261-.522a4.391,4.391,0,0,1,7.3-.847l2.555,3.073A8.768,8.768,0,0,0,70.623,39.2h7.892V34.81H70.623A4.39,4.39,0,0,1,67.251,33.23Z" transform="translate(35.639 28.481)" stroke="#000" stroke-width="1"/>
        <rect id="Rectangle_6" data-name="Rectangle 6" width="4.391" height="10.976" transform="matrix(0.8, -0.6, 0.6, 0.8, 81.663, 41.435)" stroke="#000" stroke-width="1"/>
        <rect id="Rectangle_7" data-name="Rectangle 7" width="10.976" height="4.391" transform="matrix(0.6, -0.8, 0.8, 0.6, 94.834, 47.582)" stroke="#000" stroke-width="1"/>
        <rect id="Rectangle_8" data-name="Rectangle 8" width="11.194" height="4.391" transform="translate(102.745 51.138) rotate(-11.31)" stroke="#000" stroke-width="1"/>
      </g>
    </g>
    <g id="Group_9" data-name="Group 9" transform="translate(2319 2998)">
      <g id="Ellipse_4" data-name="Ellipse 4" transform="translate(34.735 0)" fill="#fff" stroke="#f8beae" stroke-width="5">
        <ellipse cx="118.13" cy="118.13" rx="118.13" ry="118.13" stroke="none"/>
        <ellipse cx="118.13" cy="118.13" rx="115.63" ry="115.63" fill="none"/>
      </g>
      <path id="Path_56" data-name="Path 56" d="M3.654-13.661,4.3-51.2h8.11l4.634,23.68L22-51.2h7.832l.649,37.536H24.924l-.6-25.441L19.549-13.661H14.776l-5-25.626-.51,25.626Zm30.492,0L41.422-51.2H49.9l7.229,37.536h-7.09L48.7-21.909H42.765l-1.437,8.249ZM43.46-26.59h4.5L45.685-41.743ZM60.653-13.661V-51.2h9.175a18.187,18.187,0,0,1,7.438,1.228,7.239,7.239,0,0,1,3.777,3.846,17.262,17.262,0,0,1,1.112,6.7v13.67A18.093,18.093,0,0,1,81.043-18.9a7.427,7.427,0,0,1-3.73,3.962,17,17,0,0,1-7.3,1.274ZM68.3-18.99h1.622a5.215,5.215,0,0,0,3.035-.672,3.012,3.012,0,0,0,1.135-1.993,19.344,19.344,0,0,0,.232-3.267V-40.4a13.1,13.1,0,0,0-.3-3.128,2.728,2.728,0,0,0-1.2-1.738,5.853,5.853,0,0,0-2.943-.556H68.3Zm18.907,5.329V-51.2h16.312l.046,5.283-8.758-.046.046,10.01,6.719.046v5.283l-6.766-.046.046,11.817h8.758l.046,5.19Zm35.265,0L117.605-51.2h6.488l2.6,22.939,3.29-22.892h5.144L138.551-28.3l2.6-22.892h6.395l-4.819,37.536h-6.488l-3.661-23.773L129.1-13.661Zm29.194,0V-51.2h7.6v37.536Zm16.914,0L168.533-45.5l-5.793-.046V-51.2h19.185v5.7l-5.746-.046.046,31.882Zm16.822,0V-51.2H193l.046,15.431h6.627V-51.2h7.646v37.536h-7.646V-30.3L193-30.343l.046,16.683Zm39.3,0V-51.2h7.6l.046,32.346h8.8v5.19Zm29.982.51a12.4,12.4,0,0,1-6.534-1.483,8.249,8.249,0,0,1-3.452-4.24,18.691,18.691,0,0,1-1.043-6.6V-39.472a18.5,18.5,0,0,1,1.043-6.58,8.028,8.028,0,0,1,3.452-4.171,12.729,12.729,0,0,1,6.534-1.437,12.8,12.8,0,0,1,6.6,1.46,8.118,8.118,0,0,1,3.476,4.171,18.3,18.3,0,0,1,1.043,6.557v13.995a18.691,18.691,0,0,1-1.043,6.6,8.216,8.216,0,0,1-3.476,4.24A12.636,12.636,0,0,1,254.68-13.151Zm0-5.515a3.04,3.04,0,0,0,2.178-.672,3.377,3.377,0,0,0,.927-1.807,12.158,12.158,0,0,0,.232-2.433V-41.326a11.814,11.814,0,0,0-.232-2.41,3.361,3.361,0,0,0-.927-1.784,3.04,3.04,0,0,0-2.178-.672,2.893,2.893,0,0,0-2.085.672,3.361,3.361,0,0,0-.927,1.784,11.815,11.815,0,0,0-.232,2.41v17.748a13.469,13.469,0,0,0,.209,2.433,3.251,3.251,0,0,0,.9,1.807A2.965,2.965,0,0,0,254.68-18.666Zm21.27,5L268.814-51.2h6.627l4.449,25.951L284.06-51.2h6.9l-7.136,37.536Zm18.861,0V-51.2h16.312l.046,5.283-8.758-.046.046,10.01,6.719.046v5.283l-6.766-.046.046,11.817h8.758l.046,5.19Z" transform="translate(-3.654 330.794)" fill="#131313"/>
      <path id="noun_heart_glow_807433" data-name="noun_heart glow_807433" d="M109.493,88.557a17.958,17.958,0,0,0-25.391.006L83.666,89a17.961,17.961,0,0,0-.006,25.391l25.519,25.519a3.264,3.264,0,0,0,4.616,0l25.519-25.519c4.707-4.707,4.57-17.61,4.57-17.61S141.609,91.3,139.31,89l-.436-.435a17.958,17.958,0,0,0-25.391-.006l-2,2ZM88.277,109.773a11.433,11.433,0,0,1,.006-16.159l.435-.435a11.43,11.43,0,0,1,16.159-.006l4.3,4.3a3.264,3.264,0,0,0,4.616,0l4.3-4.3a11.429,11.429,0,0,1,16.159.006l.436.435a11.432,11.432,0,0,1,0,16.159l-23.21,23.212Zm26.475-50.509c0-4.352-6.528-4.352-6.528,0V72.32c0,4.352,6.528,4.352,6.528,0Zm0,93.023c0-4.352-6.528-4.352-6.528,0v11.424c0,4.353,6.528,4.353,6.528,0ZM154.6,73c3.078-3.077-1.539-7.693-4.615-4.616l-8.16,8.16c-3.078,3.077,1.539,7.693,4.615,4.616ZM86.052,141.539c3.077-3.076-1.539-7.693-4.616-4.615l-8.16,8.16c-3.077,3.076,1.539,7.693,4.616,4.615ZM73,68.38C69.919,65.3,65.3,69.919,68.38,73l8.16,8.16c3.077,3.077,7.693-1.539,4.616-4.616Zm68.543,68.544c-3.076-3.078-7.693,1.539-4.615,4.615l8.16,8.16c3.076,3.078,7.693-1.539,4.615-4.615Zm22.172-22.172c4.353,0,4.353-6.528,0-6.528H152.287c-4.352,0-4.352,6.528,0,6.528Zm-93.023,0c4.352,0,4.352-6.528,0-6.528H59.264c-4.352,0-4.352,6.528,0,6.528Z" transform="translate(41.349 6.307)" fill-rule="evenodd"/>
    </g>
    <g id="Group_7" data-name="Group 7" transform="translate(1323 2998)">
      <g id="Ellipse_3" data-name="Ellipse 3" transform="translate(31.018 0)" fill="#fff" stroke="#f8beae" stroke-width="5">
        <ellipse cx="118.13" cy="118.13" rx="118.13" ry="118.13" stroke="none"/>
        <ellipse cx="118.13" cy="118.13" rx="115.63" ry="115.63" fill="none"/>
      </g>
      <path id="Path_54" data-name="Path 54" d="M13.241-13.151a11.9,11.9,0,0,1-5.793-1.274,8.1,8.1,0,0,1-3.5-3.846,17.773,17.773,0,0,1-1.367-6.557l6.58-1.112a19.173,19.173,0,0,0,.487,3.869,4.7,4.7,0,0,0,1.2,2.317,2.825,2.825,0,0,0,2.016.765,2.122,2.122,0,0,0,2.016-.927,4.2,4.2,0,0,0,.533-2.132,6.67,6.67,0,0,0-1.135-3.962A18.9,18.9,0,0,0,11.3-29.231L7.4-32.614A15.682,15.682,0,0,1,4-36.6a10.542,10.542,0,0,1-1.321-5.468q0-4.634,2.711-7.113a10.6,10.6,0,0,1,7.438-2.479,10.137,10.137,0,0,1,4.634.927,7.084,7.084,0,0,1,2.8,2.479,10.172,10.172,0,0,1,1.39,3.383,22.829,22.829,0,0,1,.487,3.638L15.6-40.26a29.117,29.117,0,0,0-.3-3.012,4.117,4.117,0,0,0-.834-2.039,2.318,2.318,0,0,0-1.877-.741,2.212,2.212,0,0,0-1.993,1,3.95,3.95,0,0,0-.649,2.2,5.517,5.517,0,0,0,.9,3.267,16,16,0,0,0,2.479,2.665l3.8,3.337a21.6,21.6,0,0,1,4.055,4.657,11.673,11.673,0,0,1,1.691,6.464,9.529,9.529,0,0,1-1.2,4.773,8.613,8.613,0,0,1-3.36,3.337A10.231,10.231,0,0,1,13.241-13.151Zm13.253-.51L27.143-51.2h8.11l4.634,23.68L44.846-51.2h7.832l.649,37.536H47.765l-.6-25.441L42.389-13.661H37.616l-5-25.626L32.1-13.661Zm42.819.51a12.4,12.4,0,0,1-6.534-1.483,8.249,8.249,0,0,1-3.452-4.24,18.691,18.691,0,0,1-1.043-6.6V-39.472a18.5,18.5,0,0,1,1.043-6.58,8.028,8.028,0,0,1,3.452-4.171,12.729,12.729,0,0,1,6.534-1.437,12.8,12.8,0,0,1,6.6,1.46,8.118,8.118,0,0,1,3.476,4.171,18.3,18.3,0,0,1,1.043,6.557v13.995a18.691,18.691,0,0,1-1.043,6.6,8.216,8.216,0,0,1-3.476,4.24A12.636,12.636,0,0,1,69.313-13.151Zm0-5.515a3.039,3.039,0,0,0,2.178-.672,3.377,3.377,0,0,0,.927-1.807,12.159,12.159,0,0,0,.232-2.433V-41.326a11.816,11.816,0,0,0-.232-2.41,3.361,3.361,0,0,0-.927-1.784,3.039,3.039,0,0,0-2.178-.672,2.893,2.893,0,0,0-2.085.672,3.361,3.361,0,0,0-.927,1.784,11.815,11.815,0,0,0-.232,2.41v17.748a13.468,13.468,0,0,0,.209,2.433,3.251,3.251,0,0,0,.9,1.807A2.965,2.965,0,0,0,69.313-18.666Zm26.692,5.515a12.4,12.4,0,0,1-6.534-1.483,8.249,8.249,0,0,1-3.452-4.24,18.691,18.691,0,0,1-1.043-6.6V-39.472a18.5,18.5,0,0,1,1.043-6.58,8.028,8.028,0,0,1,3.452-4.171,12.729,12.729,0,0,1,6.534-1.437,12.8,12.8,0,0,1,6.6,1.46,8.118,8.118,0,0,1,3.476,4.171,18.3,18.3,0,0,1,1.043,6.557v13.995a18.691,18.691,0,0,1-1.043,6.6,8.216,8.216,0,0,1-3.476,4.24A12.636,12.636,0,0,1,96.005-13.151Zm0-5.515a3.039,3.039,0,0,0,2.178-.672,3.377,3.377,0,0,0,.927-1.807,12.158,12.158,0,0,0,.232-2.433V-41.326a11.814,11.814,0,0,0-.232-2.41,3.361,3.361,0,0,0-.927-1.784,3.039,3.039,0,0,0-2.178-.672,2.893,2.893,0,0,0-2.085.672,3.361,3.361,0,0,0-.927,1.784,11.815,11.815,0,0,0-.232,2.41v17.748a13.468,13.468,0,0,0,.209,2.433,3.251,3.251,0,0,0,.9,1.807A2.965,2.965,0,0,0,96.005-18.666Zm19.509,5L115.468-45.5l-5.793-.046V-51.2h19.185v5.7l-5.746-.046.046,31.882Zm16.822,0V-51.2h7.6l.046,15.431h6.627V-51.2h7.646v37.536h-7.646V-30.3l-6.673-.046.046,16.683Zm27.712,0V-51.2H176.36l.046,5.283-8.758-.046.046,10.01,6.719.046v5.283l-6.766-.046.046,11.817h8.758l.046,5.19Zm20.3,0V-51.2h9.732a21.742,21.742,0,0,1,6.511.857,7.6,7.6,0,0,1,4.171,3.035,10.723,10.723,0,0,1,1.46,6.024,19.142,19.142,0,0,1-.394,4.1,7.915,7.915,0,0,1-1.39,3.1,6.836,6.836,0,0,1-2.8,2.108l5.19,18.3h-7.832l-4.31-17.007h-2.688v17.007Zm7.646-21.548h2.224a5.956,5.956,0,0,0,2.919-.6,3.3,3.3,0,0,0,1.506-1.83,9.068,9.068,0,0,0,.44-3.035,6.917,6.917,0,0,0-.95-3.962q-.95-1.367-3.545-1.367h-2.6Zm40.548,22.058a11.9,11.9,0,0,1-5.793-1.274,8.1,8.1,0,0,1-3.5-3.846,17.773,17.773,0,0,1-1.367-6.557l6.58-1.112a19.175,19.175,0,0,0,.487,3.869,4.7,4.7,0,0,0,1.2,2.317,2.825,2.825,0,0,0,2.016.765,2.122,2.122,0,0,0,2.016-.927,4.2,4.2,0,0,0,.533-2.132,6.67,6.67,0,0,0-1.135-3.962,18.9,18.9,0,0,0-2.989-3.221L222.7-32.614a15.682,15.682,0,0,1-3.406-3.985,10.542,10.542,0,0,1-1.321-5.468q0-4.634,2.711-7.113a10.6,10.6,0,0,1,7.438-2.479,10.137,10.137,0,0,1,4.634.927,7.084,7.084,0,0,1,2.8,2.479,10.173,10.173,0,0,1,1.39,3.383,22.829,22.829,0,0,1,.487,3.638l-6.534.973a29.118,29.118,0,0,0-.3-3.012,4.116,4.116,0,0,0-.834-2.039,2.318,2.318,0,0,0-1.877-.741,2.212,2.212,0,0,0-1.993,1,3.95,3.95,0,0,0-.649,2.2,5.517,5.517,0,0,0,.9,3.267,16,16,0,0,0,2.479,2.665l3.8,3.337a21.6,21.6,0,0,1,4.055,4.657,11.673,11.673,0,0,1,1.691,6.464,9.529,9.529,0,0,1-1.2,4.773,8.613,8.613,0,0,1-3.36,3.337A10.231,10.231,0,0,1,228.539-13.151Zm13.068-.51V-51.2h7.646v15.848L256.019-51.2h7.414L256.39-34.329l7.554,20.668h-7.693l-5.793-16.822-1.2,2.132v14.69Zm25.07,0V-51.2h7.6v37.536Zm13.346,0V-51.2h5.329l8.341,19.556V-51.2H300v37.536h-5.1l-8.341-20.761v20.761Z" transform="translate(-2.583 330.651)" fill="#131313"/>
      <path id="Path_31-2" data-name="Path 31" d="M120.045,211.377a24.266,24.266,0,0,1-12.812-3.3,20.771,20.771,0,0,0-11.047-2.863,20.8,20.8,0,0,0-11.047,2.863,24.266,24.266,0,0,1-12.812,3.3,24.265,24.265,0,0,1-12.812-3.3,20.776,20.776,0,0,0-11.051-2.863,20.792,20.792,0,0,0-11.047,2.863,24.21,24.21,0,0,1-12.812,3.3,1.924,1.924,0,0,1,0-3.849,20.764,20.764,0,0,0,11.047-2.867,24.306,24.306,0,0,1,12.812-3.292,24.333,24.333,0,0,1,12.816,3.292,20.711,20.711,0,0,0,11.047,2.867,20.754,20.754,0,0,0,11.047-2.867,24.25,24.25,0,0,1,12.812-3.292A24.306,24.306,0,0,1,109,204.662a20.732,20.732,0,0,0,11.047,2.867,1.924,1.924,0,0,1,0,3.849Z" transform="translate(77.296 -106.762)" stroke="#000" stroke-width="4"/>
      <path id="Path_33" data-name="Path 33" d="M120.045,241.011a24.266,24.266,0,0,1-12.812-3.3,20.77,20.77,0,0,0-11.047-2.863,20.8,20.8,0,0,0-11.047,2.863,24.266,24.266,0,0,1-12.812,3.3,24.266,24.266,0,0,1-12.812-3.3,20.775,20.775,0,0,0-11.051-2.863,20.792,20.792,0,0,0-11.047,2.863,24.211,24.211,0,0,1-12.812,3.3,1.924,1.924,0,0,1,0-3.849A20.8,20.8,0,0,0,35.652,234.3,24.268,24.268,0,0,1,48.464,231a24.333,24.333,0,0,1,12.816,3.292,20.746,20.746,0,0,0,11.047,2.867,20.789,20.789,0,0,0,11.047-2.867A24.251,24.251,0,0,1,96.186,231,24.306,24.306,0,0,1,109,234.292a20.767,20.767,0,0,0,11.047,2.867,1.924,1.924,0,1,1,0,3.849Z" transform="translate(77.296 -118.238)" stroke="#000" stroke-width="4"/>
      <path id="Path_34-2" data-name="Path 34" d="M120.045,270.653a24.27,24.27,0,0,1-12.812-3.292A20.77,20.77,0,0,0,96.186,264.5a20.8,20.8,0,0,0-11.047,2.863,24.27,24.27,0,0,1-12.812,3.292,24.27,24.27,0,0,1-12.812-3.292A20.774,20.774,0,0,0,48.464,264.5a20.791,20.791,0,0,0-11.047,2.863A24.214,24.214,0,0,1,24.6,270.653a1.924,1.924,0,0,1,0-3.849,20.8,20.8,0,0,0,11.047-2.863,24.306,24.306,0,0,1,12.812-3.292,24.333,24.333,0,0,1,12.816,3.292A20.748,20.748,0,0,0,72.327,266.8a20.791,20.791,0,0,0,11.047-2.863,24.251,24.251,0,0,1,12.812-3.292A24.306,24.306,0,0,1,109,263.942a20.77,20.77,0,0,0,11.047,2.863,1.924,1.924,0,0,1,0,3.849Z" transform="translate(77.296 -129.727)" stroke="#000" stroke-width="4"/>
    </g>
    <g id="Group_4" data-name="Group 4" transform="translate(1261 2543)">
      <g id="Ellipse_6" data-name="Ellipse 6" transform="translate(93.48 0)" fill="#fff" stroke="#f8beae" stroke-width="5">
        <ellipse cx="118.13" cy="118.13" rx="118.13" ry="118.13" stroke="none"/>
        <ellipse cx="118.13" cy="118.13" rx="115.63" ry="115.63" fill="none"/>
      </g>
      <path id="Path_51" data-name="Path 51" d="M14.07-13.151a12.037,12.037,0,0,1-6.6-1.576A8.311,8.311,0,0,1,4.06-19.106a19.844,19.844,0,0,1-.973-6.511V-39.1a20.49,20.49,0,0,1,.973-6.7,8.089,8.089,0,0,1,3.406-4.333,12.326,12.326,0,0,1,6.6-1.529A12.542,12.542,0,0,1,20.4-50.316a7.374,7.374,0,0,1,3.244,3.8,15.742,15.742,0,0,1,.95,5.7v3.151H17.175v-3.522a20.054,20.054,0,0,0-.139-2.433,3.37,3.37,0,0,0-.765-1.854,2.741,2.741,0,0,0-2.155-.718,2.926,2.926,0,0,0-2.224.741,3.533,3.533,0,0,0-.88,1.923,16.968,16.968,0,0,0-.185,2.618v17.053a13.2,13.2,0,0,0,.255,2.757,3.208,3.208,0,0,0,.973,1.807,3.047,3.047,0,0,0,2.062.626,2.674,2.674,0,0,0,2.108-.718,3.583,3.583,0,0,0,.788-1.923,19.115,19.115,0,0,0,.162-2.549v-3.661h7.414v3.1a16.83,16.83,0,0,1-.927,5.816,7.825,7.825,0,0,1-3.2,3.985A11.806,11.806,0,0,1,14.07-13.151Zm25.765,0a12.624,12.624,0,0,1-6.627-1.46,7.755,7.755,0,0,1-3.313-4.217,20.687,20.687,0,0,1-.95-6.7V-51.2H36.5v26.738a17.8,17.8,0,0,0,.209,2.734,4.26,4.26,0,0,0,.927,2.178,2.749,2.749,0,0,0,2.2.834,2.81,2.81,0,0,0,2.248-.834,4.117,4.117,0,0,0,.9-2.178,19.988,19.988,0,0,0,.185-2.734V-51.2h7.554v25.673a20.687,20.687,0,0,1-.95,6.7,7.755,7.755,0,0,1-3.313,4.217A12.624,12.624,0,0,1,39.835-13.151Zm25.951,0a11.9,11.9,0,0,1-5.793-1.274,8.1,8.1,0,0,1-3.5-3.846,17.773,17.773,0,0,1-1.367-6.557l6.58-1.112a19.174,19.174,0,0,0,.487,3.869,4.7,4.7,0,0,0,1.2,2.317,2.825,2.825,0,0,0,2.016.765,2.122,2.122,0,0,0,2.016-.927,4.2,4.2,0,0,0,.533-2.132,6.67,6.67,0,0,0-1.135-3.962,18.9,18.9,0,0,0-2.989-3.221l-3.893-3.383A15.682,15.682,0,0,1,56.541-36.6a10.542,10.542,0,0,1-1.321-5.468q0-4.634,2.711-7.113a10.6,10.6,0,0,1,7.438-2.479A10.137,10.137,0,0,1,70-50.733a7.084,7.084,0,0,1,2.8,2.479,10.172,10.172,0,0,1,1.39,3.383,22.828,22.828,0,0,1,.487,3.638l-6.534.973a29.114,29.114,0,0,0-.3-3.012,4.116,4.116,0,0,0-.834-2.039,2.318,2.318,0,0,0-1.877-.741,2.212,2.212,0,0,0-1.993,1,3.95,3.95,0,0,0-.649,2.2,5.517,5.517,0,0,0,.9,3.267,16,16,0,0,0,2.479,2.665l3.8,3.337a21.6,21.6,0,0,1,4.055,4.657,11.673,11.673,0,0,1,1.691,6.464,9.529,9.529,0,0,1-1.2,4.773,8.613,8.613,0,0,1-3.36,3.337A10.231,10.231,0,0,1,65.786-13.151Zm17.239-.51L82.978-45.5l-5.793-.046V-51.2H96.37v5.7l-5.746-.046.046,31.882Zm26.924.51a12.4,12.4,0,0,1-6.534-1.483,8.249,8.249,0,0,1-3.452-4.24,18.691,18.691,0,0,1-1.043-6.6V-39.472a18.5,18.5,0,0,1,1.043-6.58,8.028,8.028,0,0,1,3.452-4.171,12.729,12.729,0,0,1,6.534-1.437,12.8,12.8,0,0,1,6.6,1.46,8.118,8.118,0,0,1,3.476,4.171,18.3,18.3,0,0,1,1.043,6.557v13.995a18.691,18.691,0,0,1-1.043,6.6,8.216,8.216,0,0,1-3.476,4.24A12.636,12.636,0,0,1,109.948-13.151Zm0-5.515a3.04,3.04,0,0,0,2.178-.672,3.377,3.377,0,0,0,.927-1.807,12.159,12.159,0,0,0,.232-2.433V-41.326a11.815,11.815,0,0,0-.232-2.41,3.361,3.361,0,0,0-.927-1.784,3.04,3.04,0,0,0-2.178-.672,2.893,2.893,0,0,0-2.085.672,3.361,3.361,0,0,0-.927,1.784,11.816,11.816,0,0,0-.232,2.41v17.748a13.468,13.468,0,0,0,.209,2.433,3.251,3.251,0,0,0,.9,1.807A2.965,2.965,0,0,0,109.948-18.666Zm16.08,5,.649-37.536h8.11l4.634,23.68,4.958-23.68h7.832l.649,37.536H147.3L146.7-39.1l-4.773,25.441H137.15l-5-25.626-.51,25.626Zm43.514,0V-51.2h15.8l.046,5.19h-8.249l.046,10.149h6.9l.046,5.329-7-.046.046,16.914Zm30.168.51a12.4,12.4,0,0,1-6.534-1.483,8.249,8.249,0,0,1-3.452-4.24,18.691,18.691,0,0,1-1.043-6.6V-39.472a18.5,18.5,0,0,1,1.043-6.58,8.028,8.028,0,0,1,3.452-4.171,12.729,12.729,0,0,1,6.534-1.437,12.8,12.8,0,0,1,6.6,1.46,8.118,8.118,0,0,1,3.476,4.171,18.3,18.3,0,0,1,1.043,6.557v13.995a18.691,18.691,0,0,1-1.043,6.6,8.216,8.216,0,0,1-3.476,4.24A12.636,12.636,0,0,1,199.71-13.151Zm0-5.515a3.039,3.039,0,0,0,2.178-.672,3.377,3.377,0,0,0,.927-1.807,12.159,12.159,0,0,0,.232-2.433V-41.326a11.815,11.815,0,0,0-.232-2.41,3.361,3.361,0,0,0-.927-1.784,3.039,3.039,0,0,0-2.178-.672,2.893,2.893,0,0,0-2.085.672,3.361,3.361,0,0,0-.927,1.784,11.816,11.816,0,0,0-.232,2.41v17.748a13.468,13.468,0,0,0,.209,2.433,3.251,3.251,0,0,0,.9,1.807A2.965,2.965,0,0,0,199.71-18.666Zm16.219,5V-51.2h9.732a21.741,21.741,0,0,1,6.511.857,7.6,7.6,0,0,1,4.171,3.035,10.724,10.724,0,0,1,1.46,6.024,19.142,19.142,0,0,1-.394,4.1,7.915,7.915,0,0,1-1.39,3.1,6.837,6.837,0,0,1-2.8,2.108l5.19,18.3h-7.832l-4.31-17.007h-2.688v17.007Zm7.646-21.548H225.8a5.956,5.956,0,0,0,2.919-.6,3.3,3.3,0,0,0,1.506-1.83,9.068,9.068,0,0,0,.44-3.035,6.917,6.917,0,0,0-.95-3.962q-.95-1.367-3.545-1.367h-2.6Zm19.231,21.548.649-37.536h8.11l4.634,23.68,4.958-23.68h7.832l.649,37.536h-5.561l-.6-25.441L258.7-13.661h-4.773l-5-25.626-.51,25.626Zm42.911.51a12.624,12.624,0,0,1-6.627-1.46,7.755,7.755,0,0,1-3.313-4.217,20.687,20.687,0,0,1-.95-6.7V-51.2h7.553v26.738a17.806,17.806,0,0,0,.209,2.734,4.26,4.26,0,0,0,.927,2.178,2.749,2.749,0,0,0,2.2.834,2.81,2.81,0,0,0,2.247-.834,4.117,4.117,0,0,0,.9-2.178,19.989,19.989,0,0,0,.185-2.734V-51.2h7.553v25.673a20.687,20.687,0,0,1-.95,6.7,7.755,7.755,0,0,1-3.313,4.217A12.624,12.624,0,0,1,285.718-13.151Zm16.219-.51V-51.2h7.6l.046,32.346h8.8v5.19Zm18.212,0L327.424-51.2h8.48l7.229,37.536h-7.09L334.7-21.909h-5.932l-1.437,8.249Zm9.314-12.929h4.5l-2.271-15.153ZM348.6-13.661,348.555-45.5l-5.793-.046V-51.2h19.185v5.7l-5.746-.046.046,31.882Zm16.822,0V-51.2h7.6v37.536Zm23.819.51a12.4,12.4,0,0,1-6.534-1.483,8.249,8.249,0,0,1-3.452-4.24,18.69,18.69,0,0,1-1.043-6.6V-39.472a18.5,18.5,0,0,1,1.043-6.58,8.028,8.028,0,0,1,3.452-4.171,12.729,12.729,0,0,1,6.534-1.437,12.8,12.8,0,0,1,6.6,1.46,8.118,8.118,0,0,1,3.476,4.171,18.3,18.3,0,0,1,1.043,6.557v13.995a18.69,18.69,0,0,1-1.043,6.6,8.216,8.216,0,0,1-3.476,4.24A12.636,12.636,0,0,1,389.242-13.151Zm0-5.515a3.04,3.04,0,0,0,2.178-.672,3.377,3.377,0,0,0,.927-1.807,12.158,12.158,0,0,0,.232-2.433V-41.326a11.814,11.814,0,0,0-.232-2.41,3.361,3.361,0,0,0-.927-1.784,3.04,3.04,0,0,0-2.178-.672,2.893,2.893,0,0,0-2.085.672,3.361,3.361,0,0,0-.927,1.784,11.814,11.814,0,0,0-.232,2.41v17.748a13.466,13.466,0,0,0,.209,2.433,3.251,3.251,0,0,0,.9,1.807A2.965,2.965,0,0,0,389.242-18.666Zm16.219,5V-51.2h5.329l8.341,19.556V-51.2h6.3v37.536h-5.1L412-34.421v20.761Z" transform="translate(-3.087 330.794)" fill="#131313"/>
      <g id="noun_Skincare_3448151" transform="translate(154.75 60.767)">
        <path id="Path_45" data-name="Path 45" d="M3.9,116.056H26.712a1.9,1.9,0,0,0,1.9-1.9V3.9a1.9,1.9,0,0,0-1.9-1.9H3.9A1.9,1.9,0,0,0,2,3.9V114.155A1.9,1.9,0,0,0,3.9,116.056ZM5.8,5.8H24.811V32.415H5.8Zm0,30.415H24.811v3.8H5.8Zm0,7.6H24.811V97.047H5.8Zm0,57.028H24.811v11.406H5.8Z" transform="translate(-2 -2)" stroke="#000" stroke-width="1"/>
        <rect id="Rectangle_9" data-name="Rectangle 9" width="4.543" height="5.679" transform="translate(6.882 101.662)"/>
        <path id="Path_46" data-name="Path 46" d="M6,7.9v9.5H9.8V9.8h3.8V6H7.9A1.9,1.9,0,0,0,6,7.9Z" transform="translate(1.604 1.604)"/>
        <rect id="Rectangle_10" data-name="Rectangle 10" width="4.543" height="3.408" transform="translate(6.882 23.287)"/>
        <path id="Path_47" data-name="Path 47" d="M19.9,107.047H46.514a1.9,1.9,0,0,0,1.9-1.9V13.9a1.9,1.9,0,0,0-1.9-1.9H19.9A1.9,1.9,0,0,0,18,13.9v91.245A1.9,1.9,0,0,0,19.9,107.047ZM21.8,15.8H44.613V38.613H21.8Zm0,26.613H44.613v60.83H21.8Z" transform="translate(12.415 7.009)" stroke="#000" stroke-width="1"/>
        <rect id="Rectangle_11" data-name="Rectangle 11" width="12.495" height="2.272" transform="translate(6.882 74.265)"/>
        <rect id="Rectangle_12" data-name="Rectangle 12" width="12.495" height="2.679" transform="translate(6.882 78.944)"/>
        <rect id="Rectangle_13" data-name="Rectangle 13" width="15.902" height="3.408" transform="translate(37.55 89.895)"/>
        <rect id="Rectangle_14" data-name="Rectangle 14" width="15.902" height="3.408" transform="translate(37.55 95.982)"/>
        <path id="Path_49" data-name="Path 49" d="M79.722,35H41.7A5.7,5.7,0,0,0,36,40.7V84.424a1.9,1.9,0,0,0,1.9,1.9H83.523a1.9,1.9,0,0,0,1.9-1.9V40.7a5.7,5.7,0,0,0-5.7-5.7Zm1.9,47.523H39.8v-3.8H81.622Zm0-7.6H39.8V54.009h3.8V65.415a5.7,5.7,0,0,0,5.7,5.7H72.118a5.7,5.7,0,0,0,5.7-5.7V54.009h3.8Zm-34.217-9.5V54.009H74.019V65.415a1.9,1.9,0,0,1-1.9,1.9H49.307A1.9,1.9,0,0,1,47.406,65.415ZM81.622,50.208H39.8V40.7a1.9,1.9,0,0,1,1.9-1.9H79.722a1.9,1.9,0,0,1,1.9,1.9Z" transform="translate(28.632 27.731)" stroke="#000" stroke-width="1"/>
        <rect id="Rectangle_15" data-name="Rectangle 15" width="5.679" height="5.679" transform="translate(102.295 68.721)"/>
        <rect id="Rectangle_16" data-name="Rectangle 16" width="3.408" height="5.679" transform="translate(95.48 68.721)"/>
      </g>
    </g>
    <g id="Group_8" data-name="Group 8" transform="translate(1815 2998)">
      <g id="Ellipse_5" data-name="Ellipse 5" transform="translate(46.087 0)" fill="#fff" stroke="#f8beae" stroke-width="5">
        <ellipse cx="118.13" cy="118.13" rx="118.13" ry="118.13" stroke="none"/>
        <ellipse cx="118.13" cy="118.13" rx="115.63" ry="115.63" fill="none"/>
      </g>
      <path id="Path_55" data-name="Path 55" d="M3.843-13.661V-51.2h15.8l.046,5.19H11.443l.046,10.149h6.9l.046,5.329-7-.046.046,16.914Zm19.6,0V-51.2h7.6v37.536Zm13.346,0V-51.2h7.6l.046,32.346h8.8v5.19Zm21.363,0L58.108-45.5l-5.793-.046V-51.2H71.5v5.7l-5.746-.046L65.8-13.661Zm16.729,0V-51.2H91.195l.046,5.283-8.758-.046.046,10.01,6.719.046v5.283l-6.766-.046.046,11.817h8.758l.046,5.19Zm20.3,0V-51.2h9.731a21.742,21.742,0,0,1,6.511.857,7.6,7.6,0,0,1,4.171,3.035,10.723,10.723,0,0,1,1.46,6.024,19.144,19.144,0,0,1-.394,4.1,7.915,7.915,0,0,1-1.39,3.1,6.837,6.837,0,0,1-2.8,2.108l5.19,18.3h-7.832l-4.31-17.007h-2.688v17.007Zm7.646-21.548h2.224a5.956,5.956,0,0,0,2.919-.6,3.3,3.3,0,0,0,1.506-1.83,9.069,9.069,0,0,0,.44-3.035,6.917,6.917,0,0,0-.95-3.962q-.95-1.367-3.545-1.367h-2.6Zm30.816,21.548V-51.2h15.8l.046,5.19h-8.249l.046,10.149h6.9l.046,5.329-7-.046.046,16.914Zm19.509,0V-51.2h9.732a21.742,21.742,0,0,1,6.511.857,7.6,7.6,0,0,1,4.171,3.035,10.724,10.724,0,0,1,1.46,6.024,19.146,19.146,0,0,1-.394,4.1,7.915,7.915,0,0,1-1.39,3.1,6.837,6.837,0,0,1-2.8,2.108l5.19,18.3H167.8l-4.31-17.007H160.8v17.007ZM160.8-35.209h2.224a5.956,5.956,0,0,0,2.919-.6,3.3,3.3,0,0,0,1.506-1.83,9.068,9.068,0,0,0,.44-3.035,6.917,6.917,0,0,0-.95-3.962q-.95-1.367-3.545-1.367h-2.6ZM180.03-13.661V-51.2h16.312l.046,5.283-8.758-.046.046,10.01,6.719.046v5.283l-6.766-.046.046,11.817h8.758l.046,5.19Zm20.3,0V-51.2h16.312l.046,5.283-8.758-.046.046,10.01,6.719.046v5.283l-6.766-.046.046,11.817h8.758l.046,5.19ZM241.8-13.1a10.132,10.132,0,0,1-6.024-1.6,8.678,8.678,0,0,1-3.174-4.541,22.277,22.277,0,0,1-.95-6.835V-38.638a22.07,22.07,0,0,1,.973-6.951,8.3,8.3,0,0,1,3.406-4.5,12.037,12.037,0,0,1,6.6-1.576,12.812,12.812,0,0,1,6.372,1.344,7.668,7.668,0,0,1,3.36,3.8,15.183,15.183,0,0,1,1.02,5.839V-38.5h-7.461v-2.641a16.4,16.4,0,0,0-.185-2.618,3.089,3.089,0,0,0-.857-1.784,3.021,3.021,0,0,0-2.155-.649,2.824,2.824,0,0,0-2.224.788,3.834,3.834,0,0,0-.88,2.016,17.555,17.555,0,0,0-.185,2.618v16.636a13.081,13.081,0,0,0,.278,2.827,3.6,3.6,0,0,0,1.043,1.946,3.162,3.162,0,0,0,2.2.7,3.12,3.12,0,0,0,2.224-.741,3.927,3.927,0,0,0,1.089-2.016,12.639,12.639,0,0,0,.3-2.9V-28.3h-3.661v-4.634h10.566v19.278h-5l-.463-3.383a6.892,6.892,0,0,1-2.224,2.827A6.49,6.49,0,0,1,241.8-13.1Zm16.914-.556V-51.2h7.6l.046,32.346h8.8v5.19Zm29.982.51a12.4,12.4,0,0,1-6.534-1.483,8.249,8.249,0,0,1-3.452-4.24,18.691,18.691,0,0,1-1.043-6.6V-39.472a18.5,18.5,0,0,1,1.043-6.58,8.028,8.028,0,0,1,3.452-4.171A12.729,12.729,0,0,1,288.7-51.66a12.8,12.8,0,0,1,6.6,1.46,8.118,8.118,0,0,1,3.476,4.171,18.3,18.3,0,0,1,1.043,6.557v13.995a18.692,18.692,0,0,1-1.043,6.6,8.216,8.216,0,0,1-3.476,4.24A12.636,12.636,0,0,1,288.7-13.151Zm0-5.515a3.039,3.039,0,0,0,2.178-.672,3.377,3.377,0,0,0,.927-1.807,12.16,12.16,0,0,0,.232-2.433V-41.326a11.816,11.816,0,0,0-.232-2.41,3.361,3.361,0,0,0-.927-1.784,3.039,3.039,0,0,0-2.178-.672,2.893,2.893,0,0,0-2.085.672,3.361,3.361,0,0,0-.927,1.784,11.816,11.816,0,0,0-.232,2.41v17.748a13.466,13.466,0,0,0,.209,2.433,3.251,3.251,0,0,0,.9,1.807A2.965,2.965,0,0,0,288.7-18.666Zm19.6,5L303.434-51.2h6.488l2.6,22.939,3.29-22.892h5.144L324.38-28.3l2.6-22.892h6.4l-4.819,37.536h-6.488L318.4-37.433l-3.476,23.773Z" transform="translate(-3.843 330.794)" fill="#131313"/>
      <path id="noun_heart_glow_807433-2" data-name="noun_heart glow_807433" d="M120.93,59.607c0-4.81-7.214-4.81-7.214,0V74.036c0,4.81,7.214,4.81,7.214,0Zm0,102.806c0-4.81-7.214-4.81-7.214,0v12.625c0,4.81,7.214,4.81,7.214,0Zm44.033-87.63c3.4-3.4-1.7-8.5-5.1-5.1L150.845,78.7c-3.4,3.4,1.7,8.5,5.1,5.1ZM89.212,150.535c3.4-3.4-1.7-8.5-5.1-5.1l-9.018,9.018c-3.4,3.4,1.7,8.5,5.1,5.1ZM74.783,69.682c-3.4-3.4-8.5,1.7-5.1,5.1L78.7,83.8c3.4,3.4,8.5-1.7,5.1-5.1Zm75.752,75.752c-3.4-3.4-8.5,1.7-5.1,5.1l9.018,9.018c3.4,3.4,8.5-1.7,5.1-5.1Zm24.5-24.5c4.81,0,4.81-7.214,0-7.214H162.413c-4.81,0-4.81,7.214,0,7.214Zm-102.806,0c4.81,0,4.81-7.214,0-7.214H59.607c-4.81,0-4.81,7.214,0,7.214Z" transform="translate(47.094 0.472)" fill-rule="evenodd"/>
      <g id="noun_Smile_1740164" transform="translate(133.988 87.416)">
        <path id="Path_50" data-name="Path 50" d="M34.392,956.362a30.392,30.392,0,1,0,30.392,30.392A30.422,30.422,0,0,0,34.392,956.362Zm0,3.964A26.428,26.428,0,1,1,7.964,986.754a26.4,26.4,0,0,1,26.428-26.428ZM23.16,974.2a4.625,4.625,0,1,0,4.625,4.625A4.625,4.625,0,0,0,23.16,974.2Zm22.464,0a4.625,4.625,0,1,0,4.625,4.625A4.625,4.625,0,0,0,45.624,974.2ZM19.65,992.7a1.911,1.911,0,0,0-1.569,1.032,2.006,2.006,0,0,0,.124,2.044,19.268,19.268,0,0,0,32.374,0,2.05,2.05,0,0,0-.537-2.746,2.075,2.075,0,0,0-2.767.537,15.284,15.284,0,0,1-25.767,0A2.28,2.28,0,0,0,19.65,992.7Z" transform="translate(-4 -956.362)" stroke="#000" stroke-width="1.3"/>
      </g>
    </g>
  </g>
</svg>
