<svg xmlns="http://www.w3.org/2000/svg" width="6314" height="818" viewBox="0 0 6314 818">
  <g id="Icons" transform="translate(-1173 -2445.241)">
    <rect id="Rectangle_2" data-name="Rectangle 2" width="6314" height="818" transform="translate(1173 2445.241)" fill="none"/>
    <g id="Group_5" data-name="Group 5" transform="translate(2569.791 2599.848)">
      <g id="Ellipse_1" data-name="Ellipse 1" transform="translate(104.905 0)" fill="#fff" stroke="#f8beae" stroke-width="5">
        <ellipse cx="185.758" cy="186.655" rx="185.758" ry="186.655" stroke="none"/>
        <ellipse cx="185.758" cy="186.655" rx="183.258" ry="184.155" fill="none"/>
      </g>
      <g id="noun_drop_2985385_1_" data-name="noun_drop_2985385 (1)" transform="translate(211.712 108.41)">
        <path id="Path_29" data-name="Path 29" d="M126.972,121.905c-20.441,0-37.072-17.93-37.072-39.971,0-18.865,25.851-55.722,33.754-66.567a4.081,4.081,0,0,1,6.629,0c7.915,10.845,33.754,47.7,33.754,66.567C164.037,103.976,147.406,121.905,126.972,121.905Zm0-100.752C112.317,41.57,95.981,68.867,95.981,81.935c0,18.687,13.9,33.89,30.991,33.89s30.984-15.2,30.984-33.89C157.956,68.867,141.621,41.57,126.972,21.154Z" transform="translate(-48.526 -13.668)" stroke="#000" stroke-width="2"/>
        <path id="Path_30" data-name="Path 30" d="M176.525,217.182c-10.162,0-15.289-2.647-20.244-5.207-4.512-2.327-8.771-4.524-17.456-4.524s-12.926,2.2-17.456,4.524c-4.955,2.561-10.082,5.207-20.244,5.207s-15.289-2.647-20.244-5.207c-4.512-2.327-8.771-4.524-17.462-4.524s-12.926,2.2-17.456,4.524c-4.924,2.561-10.082,5.207-20.244,5.207a3.041,3.041,0,0,1,0-6.081c8.685,0,12.926-2.2,17.456-4.53,4.955-2.554,10.082-5.2,20.244-5.2s15.289,2.647,20.25,5.2c4.506,2.333,8.765,4.53,17.456,4.53s12.926-2.2,17.456-4.53c4.924-2.554,10.082-5.2,20.244-5.2s15.289,2.647,20.244,5.2c4.512,2.333,8.771,4.53,17.456,4.53a3.041,3.041,0,0,1,0,6.081Z" transform="translate(-22.68 -85.839)" stroke="#000" stroke-width="2"/>
        <path id="Path_31" data-name="Path 31" d="M176.525,246.819c-10.162,0-15.289-2.647-20.244-5.207-4.512-2.327-8.771-4.524-17.456-4.524s-12.926,2.2-17.456,4.524c-4.955,2.56-10.082,5.207-20.244,5.207s-15.289-2.647-20.244-5.207c-4.512-2.327-8.771-4.524-17.462-4.524s-12.926,2.2-17.456,4.524c-4.924,2.56-10.082,5.207-20.244,5.207a3.041,3.041,0,0,1,0-6.081c8.685,0,12.926-2.2,17.456-4.53C48.113,233.653,53.258,231,63.42,231s15.289,2.647,20.25,5.2c4.506,2.327,8.765,4.53,17.456,4.53s12.926-2.2,17.456-4.53c4.924-2.554,10.082-5.2,20.244-5.2s15.289,2.647,20.244,5.2c4.512,2.327,8.771,4.53,17.456,4.53a3.041,3.041,0,1,1,0,6.081Z" transform="translate(-22.68 -97.231)" stroke="#000" stroke-width="2"/>
        <path id="Path_32" data-name="Path 32" d="M176.525,276.456c-10.162,0-15.289-2.641-20.244-5.2-4.512-2.327-8.771-4.524-17.456-4.524s-12.926,2.2-17.456,4.524c-4.955,2.56-10.082,5.2-20.244,5.2s-15.289-2.641-20.244-5.2c-4.512-2.327-8.771-4.524-17.462-4.524s-12.926,2.2-17.456,4.524c-4.924,2.56-10.082,5.2-20.244,5.2a3.041,3.041,0,0,1,0-6.081c8.685,0,12.926-2.2,17.456-4.524,4.955-2.554,10.082-5.2,20.244-5.2s15.289,2.647,20.25,5.2c4.506,2.327,8.765,4.524,17.456,4.524s12.926-2.2,17.456-4.524c4.924-2.554,10.082-5.2,20.244-5.2s15.289,2.647,20.244,5.2c4.512,2.327,8.771,4.524,17.456,4.524a3.041,3.041,0,0,1,0,6.081Z" transform="translate(-22.68 -108.631)" stroke="#000" stroke-width="2"/>
      </g>
      <path id="Path_52" data-name="Path 52" d="M3.843,8.382v-59.31h14.5q7.542,0,11.752,1.94a11.438,11.438,0,0,1,5.968,6.077,27.275,27.275,0,0,1,1.757,10.581v21.6A28.588,28.588,0,0,1,36.061.108a11.736,11.736,0,0,1-5.894,6.26Q26.029,8.382,18.634,8.382ZM15.925-.039h2.563q3.368,0,4.8-1.062a4.76,4.76,0,0,0,1.794-3.149,30.565,30.565,0,0,0,.366-5.162V-33.867a20.7,20.7,0,0,0-.476-4.942,4.311,4.311,0,0,0-1.9-2.746,9.248,9.248,0,0,0-4.65-.879h-2.49ZM45.8,8.382v-59.31H71.573l.073,8.347-13.839-.073.073,15.816,10.617.073v8.347l-10.69-.073L57.881.181H71.72l.073,8.2Zm32.071,0v-59.31h25.774l.073,8.347-13.839-.073.073,15.816,10.617.073v8.347l-10.69-.073L89.952.181h13.839l.073,8.2Zm32.071,0v-59.31h18.818a16.806,16.806,0,0,1,8.713,2.014,12.237,12.237,0,0,1,5.016,5.821,23.184,23.184,0,0,1,1.647,9.226q0,6.37-2.16,9.958a11.949,11.949,0,0,1-5.894,5.089,22.833,22.833,0,0,1-8.567,1.5h-5.492v25.7Zm12.082-34.195h4.247a8.069,8.069,0,0,0,4.064-.842,4.287,4.287,0,0,0,1.94-2.673,17.786,17.786,0,0,0,.513-4.686,21.569,21.569,0,0,0-.4-4.54,4.649,4.649,0,0,0-1.794-2.856,7.473,7.473,0,0,0-4.393-1.025h-4.174Zm46.2,34.195v-59.31h8.42l13.18,30.9v-30.9h9.958V8.382H191.73l-13.18-32.8v32.8Zm57.113.805q-6.517,0-10.324-2.343a13.034,13.034,0,0,1-5.455-6.7,29.533,29.533,0,0,1-1.647-10.434V-32.4a29.227,29.227,0,0,1,1.647-10.4,12.685,12.685,0,0,1,5.455-6.59q3.807-2.27,10.324-2.27,6.59,0,10.434,2.306a12.828,12.828,0,0,1,5.492,6.59A28.922,28.922,0,0,1,242.912-32.4V-10.29A29.533,29.533,0,0,1,241.264.144a12.982,12.982,0,0,1-5.492,6.7Q231.929,9.187,225.339,9.187Zm0-8.713A4.8,4.8,0,0,0,228.78-.588a5.336,5.336,0,0,0,1.464-2.856,19.211,19.211,0,0,0,.366-3.844V-35.332a18.668,18.668,0,0,0-.366-3.808,5.311,5.311,0,0,0-1.464-2.819,4.8,4.8,0,0,0-3.441-1.062,4.571,4.571,0,0,0-3.295,1.062,5.311,5.311,0,0,0-1.464,2.819,18.667,18.667,0,0,0-.366,3.808V-7.288a21.28,21.28,0,0,0,.329,3.844A5.137,5.137,0,0,0,221.97-.588,4.686,4.686,0,0,0,225.339.474Zm42.322,8.713q-6.736,0-10.471-2.306A12.253,12.253,0,0,1,251.955.218a32.687,32.687,0,0,1-1.5-10.581V-50.928h11.935V-8.679a28.137,28.137,0,0,0,.329,4.32,6.732,6.732,0,0,0,1.464,3.441A4.343,4.343,0,0,0,267.661.4a4.44,4.44,0,0,0,3.551-1.318,6.505,6.505,0,0,0,1.428-3.441,31.583,31.583,0,0,0,.293-4.32V-50.928h11.935v40.565a32.688,32.688,0,0,1-1.5,10.581,12.254,12.254,0,0,1-5.235,6.663Q274.4,9.187,267.661,9.187Zm25.628-.805v-59.31h15.377a34.353,34.353,0,0,1,10.288,1.355,12,12,0,0,1,6.59,4.8q2.306,3.441,2.306,9.519a30.247,30.247,0,0,1-.622,6.48,12.506,12.506,0,0,1-2.2,4.906,10.8,10.8,0,0,1-4.43,3.332l8.2,28.923H316.426l-6.81-26.872H305.37V8.382ZM305.37-25.666h3.515a9.41,9.41,0,0,0,4.613-.952,5.213,5.213,0,0,0,2.38-2.892,14.328,14.328,0,0,0,.7-4.8,10.929,10.929,0,0,0-1.5-6.26q-1.5-2.16-5.6-2.16h-4.1ZM335.9,8.382v-59.31h12.008V8.382Zm36.464.805a18.809,18.809,0,0,1-9.153-2.014A12.8,12.8,0,0,1,357.687,1.1a28.083,28.083,0,0,1-2.16-10.361l10.4-1.757a30.294,30.294,0,0,0,.769,6.114,7.425,7.425,0,0,0,1.9,3.661,4.464,4.464,0,0,0,3.185,1.208A3.353,3.353,0,0,0,374.967-1.5a6.635,6.635,0,0,0,.842-3.368,10.539,10.539,0,0,0-1.794-6.26,29.867,29.867,0,0,0-4.723-5.089l-6.151-5.345a24.779,24.779,0,0,1-5.382-6.3,16.657,16.657,0,0,1-2.087-8.64q0-7.322,4.283-11.24t11.752-3.917a16.017,16.017,0,0,1,7.322,1.464,11.193,11.193,0,0,1,4.43,3.917,16.073,16.073,0,0,1,2.2,5.345,36.068,36.068,0,0,1,.769,5.748L376.1-33.647a46.02,46.02,0,0,0-.476-4.759,6.5,6.5,0,0,0-1.318-3.222,3.662,3.662,0,0,0-2.965-1.172,3.5,3.5,0,0,0-3.149,1.574,6.241,6.241,0,0,0-1.025,3.478,8.718,8.718,0,0,0,1.428,5.162,25.279,25.279,0,0,0,3.917,4.21l6,5.272a34.131,34.131,0,0,1,6.407,7.359A18.444,18.444,0,0,1,387.6-5.53a15.057,15.057,0,0,1-1.9,7.542,13.61,13.61,0,0,1-5.309,5.272A16.167,16.167,0,0,1,372.368,9.187Zm20.795-.805v-59.31h12.008l.073,24.383h10.471V-50.928H427.8V8.382H415.715V-17.9l-10.544-.073.073,26.36Zm43.567,0,1.025-59.31h12.814l7.322,37.416,7.835-37.416H478.1l1.025,59.31h-8.787l-.952-40.2-7.542,40.2H454.3L446.395-32.11,445.59,8.382Zm50.45,0v-59.31h25.774l.073,8.347-13.839-.073.073,15.816,10.617.073v8.347l-10.69-.073L499.261.181H513.1l.073,8.2Zm32.071,0v-59.31h8.421l13.18,30.9v-30.9h9.958V8.382h-8.054l-13.18-32.8v32.8Zm46.2,0-.073-50.3-9.153-.073v-8.933h30.314v9.006l-9.08-.073.073,50.377Z" transform="translate(-3.843 492.714)" fill="#131313"/>
    </g>
    <g id="Group_6" data-name="Group 6" transform="translate(3742.21 2599.848)">
      <g id="Ellipse_2" data-name="Ellipse 2" transform="translate(3.61 0)" fill="#fff" stroke="#f8beae" stroke-width="5">
        <ellipse cx="186.655" cy="186.655" rx="186.655" ry="186.655" stroke="none"/>
        <ellipse cx="186.655" cy="186.655" rx="184.155" ry="184.155" fill="none"/>
      </g>
      <path id="Path_53" data-name="Path 53" d="M9.982,8.382l-.073-50.3L.756-41.995v-8.933H31.07v9.006l-9.079-.073.073,50.377Zm26.433,0v-59.31H51.792a34.353,34.353,0,0,1,10.288,1.355,12,12,0,0,1,6.59,4.8q2.306,3.441,2.306,9.519a30.249,30.249,0,0,1-.622,6.48,12.506,12.506,0,0,1-2.2,4.906,10.8,10.8,0,0,1-4.43,3.332l8.2,28.923H59.553l-6.81-26.872H48.5V8.382ZM48.5-25.666h3.515a9.411,9.411,0,0,0,4.613-.952A5.214,5.214,0,0,0,59-29.51a14.33,14.33,0,0,0,.7-4.8,10.929,10.929,0,0,0-1.5-6.26q-1.5-2.16-5.6-2.16H48.5ZM78.884,8.382v-59.31h25.774l.073,8.347-13.839-.073.073,15.816,10.617.073v8.347l-10.69-.073L90.965.181H104.8l.073,8.2Zm29.142,0,11.5-59.31h13.4l11.423,59.31h-11.2L131.017-4.652h-9.372l-2.27,13.033Zm14.718-20.429h7.1l-3.588-23.944ZM152.984,8.382l-.073-50.3-9.153-.073v-8.933h30.314v9.006l-9.079-.073.073,50.377Zm41.81.805a18.809,18.809,0,0,1-9.153-2.014A12.8,12.8,0,0,1,180.113,1.1a28.082,28.082,0,0,1-2.16-10.361l10.4-1.757a30.3,30.3,0,0,0,.769,6.114,7.424,7.424,0,0,0,1.9,3.661,4.464,4.464,0,0,0,3.185,1.208A3.353,3.353,0,0,0,197.393-1.5a6.636,6.636,0,0,0,.842-3.368,10.539,10.539,0,0,0-1.794-6.26,29.867,29.867,0,0,0-4.723-5.089l-6.151-5.345a24.779,24.779,0,0,1-5.382-6.3A16.657,16.657,0,0,1,178.1-36.5q0-7.322,4.283-11.24t11.752-3.917a16.017,16.017,0,0,1,7.322,1.464,11.193,11.193,0,0,1,4.43,3.917,16.074,16.074,0,0,1,2.2,5.345,36.071,36.071,0,0,1,.769,5.748l-10.324,1.538a46,46,0,0,0-.476-4.759,6.5,6.5,0,0,0-1.318-3.222,3.662,3.662,0,0,0-2.965-1.172,3.5,3.5,0,0,0-3.149,1.574,6.241,6.241,0,0,0-1.025,3.478,8.718,8.718,0,0,0,1.428,5.162,25.282,25.282,0,0,0,3.917,4.21l6,5.272a34.132,34.132,0,0,1,6.407,7.359A18.444,18.444,0,0,1,210.024-5.53a15.057,15.057,0,0,1-1.9,7.542,13.61,13.61,0,0,1-5.309,5.272A16.166,16.166,0,0,1,194.794,9.187Zm36.025-.805,11.5-59.31h13.4l11.423,59.31h-11.2L253.81-4.652h-9.372l-2.27,13.033Zm14.718-20.429h7.1l-3.588-23.944ZM288.81,9.187q-6.59,0-10.434-2.49a13.132,13.132,0,0,1-5.382-6.919,31.354,31.354,0,0,1-1.538-10.288V-31.817A32.374,32.374,0,0,1,272.994-42.4a12.782,12.782,0,0,1,5.382-6.846q3.844-2.416,10.434-2.416,6.37,0,9.995,2.123a11.651,11.651,0,0,1,5.125,6,24.874,24.874,0,0,1,1.5,9.006v4.979H293.716v-5.565a31.684,31.684,0,0,0-.22-3.844,5.325,5.325,0,0,0-1.208-2.929,4.331,4.331,0,0,0-3.4-1.135,4.624,4.624,0,0,0-3.515,1.172,5.583,5.583,0,0,0-1.391,3.039,26.811,26.811,0,0,0-.293,4.137V-7.727a20.851,20.851,0,0,0,.4,4.357,5.068,5.068,0,0,0,1.538,2.856,4.815,4.815,0,0,0,3.258.988,4.224,4.224,0,0,0,3.332-1.135A5.661,5.661,0,0,0,293.46-3.7a30.2,30.2,0,0,0,.256-4.027v-5.785h11.715v4.906A26.592,26.592,0,0,1,303.967.584a12.364,12.364,0,0,1-5.052,6.3Q295.327,9.187,288.81,9.187Zm24.017-.805v-59.31h8.421l13.18,30.9v-30.9h9.958V8.382h-8.054l-13.18-32.8v32.8Zm40.565,0v-59.31h25.774l.073,8.347L365.4-42.654l.073,15.816,10.617.073v8.347l-10.69-.073L365.473.181h13.839l.073,8.2Z" transform="translate(-0.756 492.714)" fill="#131313"/>
      <g id="noun_Acne_2047479" transform="translate(89.777 100.786)">
        <path id="Path_34" data-name="Path 34" d="M53.135,151.627l-20.84-11.908,2.834-11.325a3.469,3.469,0,0,0-.912-3.3L28.8,119.677l1.877-5.626,21.412,3.059a3.364,3.364,0,0,0,.493.035,3.51,3.51,0,0,0,1.55-.347l6.937-3.469-3.1-6.209-5.97,2.987-22.65-3.236-4.2-2.1,3.122-21.8A3.469,3.469,0,0,0,26.617,79.5L11.937,70.665,31.445,28.413a3.489,3.489,0,0,0,.187-2.407L24.7,1.725,18.021,3.633l6.59,23.042L5.638,67.775a6.937,6.937,0,0,0,2.73,8.852l12.7,7.631-3.143,22a3.469,3.469,0,0,0,1.883,3.6l4.246,2.123-2.515,7.551a3.469,3.469,0,0,0,.836,3.548l5.55,5.55-2.355,9.421a6.962,6.962,0,0,0,3.292,7.7L49.746,157.67a6.937,6.937,0,0,0,4.8.777,3.5,3.5,0,0,0,.427-.111l26.015-8.755,6.129,42.88L74.176,208.631l5.418,4.336,13.875-17.343a3.469,3.469,0,0,0,.725-2.66l-6.549-45.641,18.068-6.081-2.216-6.59Z" transform="translate(-5 -1.725)" stroke="#000" stroke-width="1"/>
        <path id="Path_35" data-name="Path 35" d="M15.609,34.72l3.1,6.209a9.941,9.941,0,0,0,3.507-14.86L16.466,18.4l-5.55,4.162,5.751,7.669a3,3,0,0,1-1.041,4.488Z" transform="translate(9.605 39.44)" stroke="#000" stroke-width="1"/>
        <path id="Path_36" data-name="Path 36" d="M52.6,15.946,29.5,6.705h0L26.591,5.54,17.92,2.071,15.346,8.516l5.394,2.158a29,29,0,0,0,.6,16.75l-5.99,2.4,2.574,6.445L52.607,22.39a3.469,3.469,0,0,0,0-6.445ZM29.994,18.658a8.1,8.1,0,0,1-2.383,5.9A23.934,23.934,0,0,1,27.1,13.514,8.672,8.672,0,0,1,29.994,18.658Zm6.8,2.584A12.834,12.834,0,0,0,36.9,18.02c-.031-.347-.125-.631-.18-.954l5.252,2.1Z" transform="translate(20.541 -0.871)" stroke="#000" stroke-width="1"/>
        <path id="Path_37" data-name="Path 37" d="M82.561,14a48.561,48.561,0,1,0,48.562,48.561A48.561,48.561,0,0,0,82.561,14Zm0,90.186a41.624,41.624,0,1,1,41.624-41.624,41.624,41.624,0,0,1-41.624,41.624Z" transform="translate(66.592 28.578)" stroke="#000" stroke-width="1"/>
        <rect id="Rectangle_2-2" data-name="Rectangle 2" width="6.937" height="6.937" transform="translate(62.436 56.453)" stroke="#000" stroke-width="1"/>
        <rect id="Rectangle_3" data-name="Rectangle 3" width="6.937" height="6.937" transform="translate(72.842 77.265)" stroke="#000" stroke-width="1"/>
        <rect id="Rectangle_4" data-name="Rectangle 4" width="6.937" height="6.937" transform="translate(83.248 49.515)" stroke="#000" stroke-width="1"/>
        <rect id="Rectangle_5" data-name="Rectangle 5" width="6.937" height="6.937" transform="translate(52.03 84.202)" stroke="#000" stroke-width="1"/>
        <path id="Path_38" data-name="Path 38" d="M83.638,36.845,79.6,31.989a13.875,13.875,0,0,0-23.07,2.681l-.413.829a6.906,6.906,0,0,1-6.205,3.833H39v6.937H49.912A13.8,13.8,0,0,0,62.323,38.6l.413-.826A6.937,6.937,0,0,1,74.27,36.432l4.038,4.856A13.854,13.854,0,0,0,88.966,46.28h12.47V39.342H88.966A6.937,6.937,0,0,1,83.638,36.845Z" transform="translate(78.935 60.663)" stroke="#000" stroke-width="1"/>
        <rect id="Rectangle_6" data-name="Rectangle 6" width="6.937" height="17.343" transform="matrix(0.8, -0.6, 0.6, 0.8, 129.035, 65.471)" stroke="#000" stroke-width="1"/>
        <rect id="Rectangle_7" data-name="Rectangle 7" width="17.343" height="6.937" transform="matrix(0.6, -0.8, 0.8, 0.6, 149.846, 75.183)" stroke="#000" stroke-width="1"/>
        <rect id="Rectangle_8" data-name="Rectangle 8" width="17.687" height="6.937" transform="translate(162.345 80.802) rotate(-11.31)" stroke="#000" stroke-width="1"/>
      </g>
    </g>
    <g id="Group_9" data-name="Group 9" transform="translate(6881.829 2599.848)">
      <g id="Ellipse_4" data-name="Ellipse 4" transform="translate(54.885 0)" fill="#fff" stroke="#f8beae" stroke-width="5">
        <ellipse cx="186.655" cy="186.655" rx="186.655" ry="186.655" stroke="none"/>
        <ellipse cx="186.655" cy="186.655" rx="184.155" ry="184.155" fill="none"/>
      </g>
      <path id="Path_56" data-name="Path 56" d="M3.654,8.382l1.025-59.31H17.493l7.322,37.416L32.65-50.928H45.024l1.025,59.31H37.263l-.952-40.2-7.542,40.2H21.227L13.319-32.11,12.514,8.382Zm48.18,0,11.5-59.31h13.4L88.152,8.382h-11.2L74.825-4.652H65.453L63.183,8.382ZM66.551-12.047h7.1L70.066-35.991ZM93.717,8.382v-59.31h14.5q7.542,0,11.752,1.94a11.438,11.438,0,0,1,5.968,6.077,27.276,27.276,0,0,1,1.757,10.581v21.6A28.588,28.588,0,0,1,125.934.108a11.736,11.736,0,0,1-5.894,6.26Q115.9,8.382,108.507,8.382ZM105.8-.039h2.563q3.368,0,4.8-1.062a4.759,4.759,0,0,0,1.794-3.149,30.564,30.564,0,0,0,.366-5.162V-33.867a20.7,20.7,0,0,0-.476-4.942,4.311,4.311,0,0,0-1.9-2.746,9.248,9.248,0,0,0-4.65-.879H105.8Zm29.874,8.42v-59.31h25.774l.073,8.347-13.839-.073.073,15.816,10.617.073v8.347l-10.69-.073L147.754.181h13.839l.073,8.2Zm55.722,0-7.688-59.31h10.251l4.1,36.245,5.2-36.172h8.128l5.418,36.1,4.1-36.172h10.1l-7.615,59.31H213.141l-5.784-37.563L201.865,8.382Zm46.13,0v-59.31h12.008V8.382Zm26.726,0-.073-50.3-9.153-.073v-8.933h30.314v9.006l-9.079-.073.073,50.377Zm26.579,0v-59.31h12.008l.073,24.383h10.471V-50.928h12.082V8.382H313.382V-17.9l-10.544-.073.073,26.36Zm62.092,0v-59.31H364.93L365,.181h13.912v8.2Zm47.374.805q-6.517,0-10.324-2.343a13.034,13.034,0,0,1-5.455-6.7,29.534,29.534,0,0,1-1.647-10.434V-32.4a29.227,29.227,0,0,1,1.647-10.4,12.685,12.685,0,0,1,5.455-6.59q3.807-2.27,10.324-2.27,6.59,0,10.434,2.306a12.827,12.827,0,0,1,5.492,6.59A28.922,28.922,0,0,1,417.869-32.4V-10.29A29.534,29.534,0,0,1,416.222.144a12.982,12.982,0,0,1-5.492,6.7Q406.886,9.187,400.3,9.187Zm0-8.713a4.8,4.8,0,0,0,3.441-1.062A5.336,5.336,0,0,0,405.2-3.443a19.211,19.211,0,0,0,.366-3.844V-35.332a18.668,18.668,0,0,0-.366-3.808,5.311,5.311,0,0,0-1.464-2.819A4.8,4.8,0,0,0,400.3-43.02,4.571,4.571,0,0,0,397-41.958a5.312,5.312,0,0,0-1.464,2.819,18.67,18.67,0,0,0-.366,3.808V-7.288a21.283,21.283,0,0,0,.329,3.844,5.136,5.136,0,0,0,1.428,2.856A4.686,4.686,0,0,0,400.3.474ZM433.9,8.382l-11.276-59.31H433.1l7.029,41,6.59-41h10.91L446.352,8.382Zm29.8,0v-59.31H489.48l.073,8.347-13.839-.073.073,15.816,10.617.073v8.347l-10.69-.073L475.788.181h13.839l.073,8.2Z" transform="translate(-3.654 492.714)" fill="#131313"/>
      <path id="noun_heart_glow_807433" data-name="noun_heart glow_807433" d="M140.523,107.442a28.375,28.375,0,0,0-40.12.009l-.687.688a28.38,28.38,0,0,0-.009,40.12l40.322,40.321a5.158,5.158,0,0,0,7.294,0l40.322-40.321c7.437-7.438,7.221-27.825,7.221-27.825s-3.6-8.662-7.229-12.295l-.689-.687a28.375,28.375,0,0,0-40.12-.009l-3.152,3.152ZM107,140.965a18.065,18.065,0,0,1,.009-25.533l.687-.687a18.06,18.06,0,0,1,25.533-.009l6.8,6.8a5.157,5.157,0,0,0,7.294,0l6.8-6.8a18.059,18.059,0,0,1,25.532.009l.689.688a18.063,18.063,0,0,1,.008,25.533l-36.674,36.676Zm41.833-79.808c0-6.877-10.315-6.877-10.315,0V81.787c0,6.877,10.315,6.877,10.315,0Zm0,146.985c0-6.877-10.315-6.877-10.315,0v18.051c0,6.877,10.315,6.877,10.315,0ZM211.788,82.855c4.863-4.862-2.432-12.156-7.292-7.294L191.6,88.455c-4.863,4.862,2.432,12.156,7.293,7.294Zm-108.3,108.3c4.862-4.861-2.431-12.156-7.294-7.292L83.3,196.76c-4.862,4.861,2.431,12.156,7.294,7.293ZM82.855,75.561C77.993,70.7,70.7,77.993,75.561,82.855L88.455,95.748c4.862,4.862,12.156-2.431,7.294-7.294Zm108.3,108.3C186.3,179,179,186.3,183.866,191.159l12.893,12.893c4.861,4.863,12.156-2.432,7.293-7.293Zm35.034-35.034c6.877,0,6.877-10.315,0-10.315H208.142c-6.877,0-6.877,10.315,0,10.315Zm-146.985,0c6.877,0,6.877-10.315,0-10.315H61.157c-6.877,0-6.877,10.315,0,10.315Z" transform="translate(97.819 42.451)" fill-rule="evenodd"/>
    </g>
    <g id="Group_7" data-name="Group 7" transform="translate(4710.799 2599.848)">
      <g id="Ellipse_3" data-name="Ellipse 3" transform="translate(49.011 0)" fill="#fff" stroke="#f8beae" stroke-width="5">
        <ellipse cx="186.655" cy="186.655" rx="186.655" ry="186.655" stroke="none"/>
        <ellipse cx="186.655" cy="186.655" rx="184.155" ry="184.155" fill="none"/>
      </g>
      <path id="Path_54" data-name="Path 54" d="M19.424,9.187a18.809,18.809,0,0,1-9.153-2.014A12.8,12.8,0,0,1,4.743,1.1,28.082,28.082,0,0,1,2.583-9.265l10.4-1.757a30.3,30.3,0,0,0,.769,6.114,7.425,7.425,0,0,0,1.9,3.661A4.464,4.464,0,0,0,18.838-.039,3.353,3.353,0,0,0,22.023-1.5a6.636,6.636,0,0,0,.842-3.368,10.539,10.539,0,0,0-1.794-6.26,29.868,29.868,0,0,0-4.723-5.089L10.2-21.566a24.778,24.778,0,0,1-5.382-6.3A16.657,16.657,0,0,1,2.729-36.5q0-7.322,4.283-11.24T18.765-51.66A16.017,16.017,0,0,1,26.087-50.2a11.193,11.193,0,0,1,4.43,3.917,16.073,16.073,0,0,1,2.2,5.345,36.071,36.071,0,0,1,.769,5.748L23.158-33.647a46.006,46.006,0,0,0-.476-4.759,6.5,6.5,0,0,0-1.318-3.222A3.662,3.662,0,0,0,18.4-42.8a3.5,3.5,0,0,0-3.149,1.574,6.241,6.241,0,0,0-1.025,3.478,8.718,8.718,0,0,0,1.428,5.162,25.281,25.281,0,0,0,3.917,4.21l6,5.272a34.133,34.133,0,0,1,6.407,7.359A18.445,18.445,0,0,1,34.654-5.53a15.057,15.057,0,0,1-1.9,7.542,13.61,13.61,0,0,1-5.309,5.272A16.167,16.167,0,0,1,19.424,9.187Zm20.941-.805,1.025-59.31H54.2l7.322,37.416,7.835-37.416H81.736l1.025,59.31H73.974l-.952-40.2L65.48,8.382H57.939L50.031-32.11,49.225,8.382Zm67.657.805q-6.517,0-10.324-2.343a13.034,13.034,0,0,1-5.455-6.7A29.533,29.533,0,0,1,90.6-10.29V-32.4a29.227,29.227,0,0,1,1.647-10.4A12.685,12.685,0,0,1,97.7-49.39q3.808-2.27,10.324-2.27,6.59,0,10.434,2.306a12.827,12.827,0,0,1,5.492,6.59A28.922,28.922,0,0,1,125.6-32.4V-10.29A29.533,29.533,0,0,1,123.948.144a12.982,12.982,0,0,1-5.492,6.7Q114.612,9.187,108.022,9.187Zm0-8.713a4.8,4.8,0,0,0,3.441-1.062,5.336,5.336,0,0,0,1.464-2.856,19.213,19.213,0,0,0,.366-3.844V-35.332a18.67,18.67,0,0,0-.366-3.808,5.311,5.311,0,0,0-1.464-2.819,4.8,4.8,0,0,0-3.441-1.062,4.571,4.571,0,0,0-3.295,1.062,5.311,5.311,0,0,0-1.464,2.819,18.669,18.669,0,0,0-.366,3.808V-7.288a21.279,21.279,0,0,0,.33,3.844,5.136,5.136,0,0,0,1.428,2.856A4.686,4.686,0,0,0,108.022.474ZM150.2,9.187q-6.517,0-10.324-2.343a13.034,13.034,0,0,1-5.455-6.7,29.533,29.533,0,0,1-1.647-10.434V-32.4a29.227,29.227,0,0,1,1.647-10.4,12.685,12.685,0,0,1,5.455-6.59q3.808-2.27,10.324-2.27,6.59,0,10.434,2.306a12.827,12.827,0,0,1,5.492,6.59A28.922,28.922,0,0,1,167.771-32.4V-10.29A29.533,29.533,0,0,1,166.124.144a12.982,12.982,0,0,1-5.492,6.7Q156.788,9.187,150.2,9.187Zm0-8.713a4.8,4.8,0,0,0,3.441-1.062A5.335,5.335,0,0,0,155.1-3.443a19.21,19.21,0,0,0,.366-3.844V-35.332a18.667,18.667,0,0,0-.366-3.808,5.311,5.311,0,0,0-1.464-2.819A4.8,4.8,0,0,0,150.2-43.02a4.571,4.571,0,0,0-3.295,1.062,5.311,5.311,0,0,0-1.464,2.819,18.669,18.669,0,0,0-.366,3.808V-7.288a21.28,21.28,0,0,0,.329,3.844A5.136,5.136,0,0,0,146.83-.588,4.686,4.686,0,0,0,150.2.474Zm30.826,7.908-.073-50.3-9.153-.073v-8.933h30.314v9.006l-9.079-.073.073,50.377Zm26.579,0v-59.31h12.008l.073,24.383h10.471V-50.928h12.082V8.382H230.156V-17.9l-10.544-.073.073,26.36Zm43.787,0v-59.31h25.774l.073,8.347L263.4-42.654l.073,15.816,10.617.073v8.347l-10.69-.073L263.472.181h13.839l.073,8.2Zm32.071,0v-59.31h15.377a34.353,34.353,0,0,1,10.288,1.355,12,12,0,0,1,6.59,4.8q2.307,3.441,2.306,9.519a30.247,30.247,0,0,1-.622,6.48,12.506,12.506,0,0,1-2.2,4.906,10.8,10.8,0,0,1-4.43,3.332l8.2,28.923H306.6l-6.81-26.872h-4.247V8.382Zm12.082-34.048h3.515a9.411,9.411,0,0,0,4.613-.952,5.213,5.213,0,0,0,2.38-2.892,14.328,14.328,0,0,0,.7-4.8,10.929,10.929,0,0,0-1.5-6.26q-1.5-2.16-5.6-2.16h-4.1ZM359.612,9.187a18.809,18.809,0,0,1-9.153-2.014A12.8,12.8,0,0,1,344.931,1.1a28.083,28.083,0,0,1-2.16-10.361l10.4-1.757a30.3,30.3,0,0,0,.769,6.114,7.425,7.425,0,0,0,1.9,3.661,4.464,4.464,0,0,0,3.185,1.208A3.353,3.353,0,0,0,362.211-1.5a6.635,6.635,0,0,0,.842-3.368,10.539,10.539,0,0,0-1.794-6.26,29.87,29.87,0,0,0-4.723-5.089l-6.151-5.345a24.779,24.779,0,0,1-5.382-6.3,16.657,16.657,0,0,1-2.087-8.64q0-7.322,4.283-11.24t11.752-3.917a16.017,16.017,0,0,1,7.322,1.464,11.193,11.193,0,0,1,4.43,3.917,16.074,16.074,0,0,1,2.2,5.345,36.068,36.068,0,0,1,.769,5.748l-10.324,1.538a46.011,46.011,0,0,0-.476-4.759,6.5,6.5,0,0,0-1.318-3.222,3.662,3.662,0,0,0-2.965-1.172,3.5,3.5,0,0,0-3.149,1.574,6.241,6.241,0,0,0-1.025,3.478,8.718,8.718,0,0,0,1.428,5.162,25.283,25.283,0,0,0,3.917,4.21l6,5.272a34.133,34.133,0,0,1,6.407,7.359A18.445,18.445,0,0,1,374.842-5.53a15.057,15.057,0,0,1-1.9,7.542,13.61,13.61,0,0,1-5.309,5.272A16.166,16.166,0,0,1,359.612,9.187Zm20.648-.805v-59.31h12.082v25.042l10.69-25.042h11.715l-11.13,26.653L415.553,8.382H403.4L394.246-18.2l-1.9,3.368V8.382Zm39.613,0v-59.31h12.008V8.382Zm21.088,0v-59.31h8.421l13.18,30.9v-30.9h9.958V8.382h-8.054l-13.18-32.8v32.8Z" transform="translate(-2.583 492.714)" fill="#131313"/>
      <path id="Path_31-2" data-name="Path 31" d="M176.525,217.182c-10.162,0-15.289-2.647-20.244-5.207-4.512-2.327-8.771-4.524-17.456-4.524s-12.926,2.2-17.456,4.524c-4.955,2.561-10.082,5.207-20.244,5.207s-15.289-2.647-20.244-5.207c-4.512-2.327-8.771-4.524-17.462-4.524s-12.926,2.2-17.456,4.524c-4.924,2.561-10.082,5.207-20.244,5.207a3.041,3.041,0,0,1,0-6.081c8.685,0,12.926-2.2,17.456-4.53,4.955-2.554,10.082-5.2,20.244-5.2s15.289,2.647,20.25,5.2c4.506,2.333,8.765,4.53,17.456,4.53s12.926-2.2,17.456-4.53c4.924-2.554,10.082-5.2,20.244-5.2s15.289,2.647,20.244,5.2c4.512,2.333,8.771,4.53,17.456,4.53a3.041,3.041,0,0,1,0,6.081Z" transform="translate(135.289 -51.812)" stroke="#000" stroke-width="4"/>
      <path id="Path_33" data-name="Path 33" d="M176.525,246.819c-10.162,0-15.289-2.647-20.244-5.207-4.512-2.327-8.771-4.524-17.456-4.524s-12.926,2.2-17.456,4.524c-4.955,2.56-10.082,5.207-20.244,5.207s-15.289-2.647-20.244-5.207c-4.512-2.327-8.771-4.524-17.462-4.524s-12.926,2.2-17.456,4.524c-4.924,2.56-10.082,5.207-20.244,5.207a3.041,3.041,0,0,1,0-6.081c8.685,0,12.926-2.2,17.456-4.53C48.113,233.653,53.258,231,63.42,231s15.289,2.647,20.25,5.2c4.506,2.327,8.765,4.53,17.456,4.53s12.926-2.2,17.456-4.53c4.924-2.554,10.082-5.2,20.244-5.2s15.289,2.647,20.244,5.2c4.512,2.327,8.771,4.53,17.456,4.53a3.041,3.041,0,1,1,0,6.081Z" transform="translate(135.289 -52.745)" stroke="#000" stroke-width="4"/>
      <path id="Path_34-2" data-name="Path 34" d="M176.525,276.456c-10.162,0-15.289-2.641-20.244-5.2-4.512-2.327-8.771-4.524-17.456-4.524s-12.926,2.2-17.456,4.524c-4.955,2.56-10.082,5.2-20.244,5.2s-15.289-2.641-20.244-5.2c-4.512-2.327-8.771-4.524-17.462-4.524s-12.926,2.2-17.456,4.524c-4.924,2.56-10.082,5.2-20.244,5.2a3.041,3.041,0,0,1,0-6.081c8.685,0,12.926-2.2,17.456-4.524,4.955-2.554,10.082-5.2,20.244-5.2s15.289,2.647,20.25,5.2c4.506,2.327,8.765,4.524,17.456,4.524s12.926-2.2,17.456-4.524c4.924-2.554,10.082-5.2,20.244-5.2s15.289,2.647,20.244,5.2c4.512,2.327,8.771,4.524,17.456,4.524a3.041,3.041,0,0,1,0,6.081Z" transform="translate(135.289 -53.685)" stroke="#000" stroke-width="4"/>
    </g>
    <g id="Group_4" data-name="Group 4" transform="translate(1312.047 2599.848)">
      <g id="Ellipse_6" data-name="Ellipse 6" transform="translate(147.707 0)" fill="#fff" stroke="#f8beae" stroke-width="5">
        <ellipse cx="186.655" cy="186.655" rx="186.655" ry="186.655" stroke="none"/>
        <ellipse cx="186.655" cy="186.655" rx="184.155" ry="184.155" fill="none"/>
      </g>
      <path id="Path_51" data-name="Path 51" d="M20.441,9.187q-6.59,0-10.434-2.49A13.132,13.132,0,0,1,4.625-.222,31.355,31.355,0,0,1,3.087-10.509V-31.817A32.375,32.375,0,0,1,4.625-42.4a12.782,12.782,0,0,1,5.382-6.846q3.844-2.416,10.434-2.416,6.37,0,9.995,2.123a11.651,11.651,0,0,1,5.126,6,24.874,24.874,0,0,1,1.5,9.006v4.979H25.346v-5.565a31.686,31.686,0,0,0-.22-3.844,5.325,5.325,0,0,0-1.208-2.929,4.331,4.331,0,0,0-3.4-1.135A4.624,4.624,0,0,0,17-41.848a5.582,5.582,0,0,0-1.391,3.039,26.81,26.81,0,0,0-.293,4.137V-7.727a20.85,20.85,0,0,0,.4,4.357A5.068,5.068,0,0,0,17.255-.515a4.815,4.815,0,0,0,3.258.988A4.224,4.224,0,0,0,23.845-.661,5.662,5.662,0,0,0,25.09-3.7a30.2,30.2,0,0,0,.256-4.027v-5.785H37.062v4.906A26.593,26.593,0,0,1,35.6.584a12.364,12.364,0,0,1-5.052,6.3Q26.957,9.187,20.441,9.187Zm40.711,0q-6.736,0-10.471-2.306A12.254,12.254,0,0,1,45.446.218a32.687,32.687,0,0,1-1.5-10.581V-50.928H55.88V-8.679a28.131,28.131,0,0,0,.329,4.32A6.731,6.731,0,0,0,57.674-.917,4.343,4.343,0,0,0,61.152.4,4.44,4.44,0,0,0,64.7-.917a6.505,6.505,0,0,0,1.428-3.441,31.583,31.583,0,0,0,.293-4.32V-50.928H78.359v40.565A32.687,32.687,0,0,1,76.858.218a12.254,12.254,0,0,1-5.235,6.663Q67.888,9.187,61.152,9.187Zm41,0A18.809,18.809,0,0,1,93,7.174,12.8,12.8,0,0,1,87.475,1.1a28.082,28.082,0,0,1-2.16-10.361l10.4-1.757a30.3,30.3,0,0,0,.769,6.114,7.425,7.425,0,0,0,1.9,3.661A4.464,4.464,0,0,0,101.57-.039,3.353,3.353,0,0,0,104.755-1.5a6.636,6.636,0,0,0,.842-3.368,10.539,10.539,0,0,0-1.794-6.26,29.868,29.868,0,0,0-4.723-5.089L92.93-21.566a24.779,24.779,0,0,1-5.382-6.3,16.657,16.657,0,0,1-2.087-8.64q0-7.322,4.283-11.24T101.5-51.66a16.017,16.017,0,0,1,7.322,1.464,11.193,11.193,0,0,1,4.43,3.917,16.073,16.073,0,0,1,2.2,5.345,36.069,36.069,0,0,1,.769,5.748L105.89-33.647a46,46,0,0,0-.476-4.759,6.5,6.5,0,0,0-1.318-3.222,3.662,3.662,0,0,0-2.965-1.172,3.5,3.5,0,0,0-3.149,1.574,6.241,6.241,0,0,0-1.025,3.478,8.718,8.718,0,0,0,1.428,5.162,25.281,25.281,0,0,0,3.917,4.21l6,5.272a34.132,34.132,0,0,1,6.407,7.359A18.445,18.445,0,0,1,117.386-5.53a15.057,15.057,0,0,1-1.9,7.542,13.61,13.61,0,0,1-5.309,5.272A16.166,16.166,0,0,1,102.156,9.187Zm27.238-.805-.073-50.3-9.153-.073v-8.933h30.314v9.006l-9.079-.073.073,50.377Zm42.542.805q-6.517,0-10.324-2.343a13.034,13.034,0,0,1-5.455-6.7,29.533,29.533,0,0,1-1.647-10.434V-32.4a29.227,29.227,0,0,1,1.647-10.4,12.685,12.685,0,0,1,5.455-6.59q3.808-2.27,10.324-2.27,6.59,0,10.434,2.306a12.827,12.827,0,0,1,5.492,6.59A28.922,28.922,0,0,1,189.509-32.4V-10.29A29.533,29.533,0,0,1,187.862.144a12.982,12.982,0,0,1-5.492,6.7Q178.526,9.187,171.936,9.187Zm0-8.713a4.8,4.8,0,0,0,3.441-1.062,5.336,5.336,0,0,0,1.464-2.856,19.212,19.212,0,0,0,.366-3.844V-35.332a18.669,18.669,0,0,0-.366-3.808,5.311,5.311,0,0,0-1.464-2.819,4.8,4.8,0,0,0-3.441-1.062,4.571,4.571,0,0,0-3.295,1.062,5.311,5.311,0,0,0-1.464,2.819,18.669,18.669,0,0,0-.366,3.808V-7.288a21.282,21.282,0,0,0,.329,3.844,5.136,5.136,0,0,0,1.428,2.856A4.686,4.686,0,0,0,171.936.474Zm25.408,7.908,1.025-59.31h12.814l7.322,37.416,7.835-37.416h12.374l1.025,59.31h-8.787L230-31.817l-7.542,40.2h-7.542L207.009-32.11,206.2,8.382Zm68.755,0v-59.31h24.969l.073,8.2H278.108l.073,16.036h10.91l.073,8.42-11.056-.073.073,26.726Zm47.667.805q-6.517,0-10.324-2.343a13.034,13.034,0,0,1-5.455-6.7A29.534,29.534,0,0,1,296.34-10.29V-32.4a29.227,29.227,0,0,1,1.647-10.4,12.685,12.685,0,0,1,5.455-6.59q3.808-2.27,10.324-2.27,6.59,0,10.434,2.306a12.827,12.827,0,0,1,5.492,6.59A28.922,28.922,0,0,1,331.34-32.4V-10.29A29.533,29.533,0,0,1,329.692.144a12.982,12.982,0,0,1-5.492,6.7Q320.357,9.187,313.767,9.187Zm0-8.713a4.8,4.8,0,0,0,3.441-1.062,5.335,5.335,0,0,0,1.464-2.856,19.213,19.213,0,0,0,.366-3.844V-35.332a18.67,18.67,0,0,0-.366-3.808,5.311,5.311,0,0,0-1.464-2.819,4.8,4.8,0,0,0-3.441-1.062,4.571,4.571,0,0,0-3.3,1.062,5.312,5.312,0,0,0-1.464,2.819,18.67,18.67,0,0,0-.366,3.808V-7.288a21.28,21.28,0,0,0,.33,3.844A5.136,5.136,0,0,0,310.4-.588,4.686,4.686,0,0,0,313.767.474Zm25.628,7.908v-59.31h15.377a34.353,34.353,0,0,1,10.288,1.355,12,12,0,0,1,6.59,4.8q2.306,3.441,2.306,9.519a30.243,30.243,0,0,1-.622,6.48,12.506,12.506,0,0,1-2.2,4.906,10.8,10.8,0,0,1-4.43,3.332l8.2,28.923H362.532l-6.81-26.872h-4.247V8.382Zm12.082-34.048h3.515a9.41,9.41,0,0,0,4.613-.952,5.213,5.213,0,0,0,2.38-2.892,14.328,14.328,0,0,0,.7-4.8,10.929,10.929,0,0,0-1.5-6.26q-1.5-2.16-5.6-2.16h-4.1ZM381.863,8.382l1.025-59.31H395.7l7.322,37.416,7.835-37.416h12.374l1.025,59.31h-8.787l-.952-40.2-7.542,40.2h-7.542L391.528-32.11l-.805,40.492Zm67.8.805q-6.736,0-10.471-2.306A12.254,12.254,0,0,1,433.96.218a32.687,32.687,0,0,1-1.5-10.581V-50.928h11.935V-8.679a28.137,28.137,0,0,0,.329,4.32,6.731,6.731,0,0,0,1.465,3.441A4.343,4.343,0,0,0,449.666.4a4.44,4.44,0,0,0,3.551-1.318,6.505,6.505,0,0,0,1.428-3.441,31.583,31.583,0,0,0,.293-4.32V-50.928h11.935v40.565a32.687,32.687,0,0,1-1.5,10.581,12.253,12.253,0,0,1-5.235,6.663Q456.4,9.187,449.666,9.187Zm25.628-.805v-59.31H487.3L487.375.181h13.912v8.2Zm28.776,0,11.5-59.31h13.4l11.423,59.31h-11.2L527.062-4.652h-9.372l-2.27,13.033Zm14.718-20.429h7.1L522.3-35.991Zm30.24,20.429-.073-50.3-9.153-.073v-8.933h30.314v9.006l-9.08-.073.073,50.377Zm26.58,0v-59.31h12.008V8.382Zm37.636.805q-6.517,0-10.324-2.343a13.033,13.033,0,0,1-5.455-6.7,29.532,29.532,0,0,1-1.647-10.434V-32.4a29.225,29.225,0,0,1,1.647-10.4,12.685,12.685,0,0,1,5.455-6.59q3.808-2.27,10.324-2.27,6.59,0,10.434,2.306a12.827,12.827,0,0,1,5.492,6.59A28.919,28.919,0,0,1,630.817-32.4V-10.29A29.53,29.53,0,0,1,629.169.144a12.981,12.981,0,0,1-5.492,6.7Q619.833,9.187,613.243,9.187Zm0-8.713a4.8,4.8,0,0,0,3.441-1.062,5.335,5.335,0,0,0,1.464-2.856,19.211,19.211,0,0,0,.366-3.844V-35.332a18.668,18.668,0,0,0-.366-3.808,5.311,5.311,0,0,0-1.464-2.819,4.8,4.8,0,0,0-3.441-1.062,4.571,4.571,0,0,0-3.295,1.062,5.311,5.311,0,0,0-1.464,2.819,18.668,18.668,0,0,0-.366,3.808V-7.288a21.28,21.28,0,0,0,.329,3.844,5.137,5.137,0,0,0,1.428,2.856A4.686,4.686,0,0,0,613.243.474Zm25.628,7.908v-59.31h8.421l13.18,30.9v-30.9h9.958V8.382h-8.054l-13.18-32.8v32.8Z" transform="translate(-3.087 492.714)" fill="#131313"/>
      <g id="noun_Skincare_3448151" transform="translate(244.518 96.017)">
        <path id="Path_45" data-name="Path 45" d="M5,182.218H41.047a3,3,0,0,0,3-3V5a3,3,0,0,0-3-3H5A3,3,0,0,0,2,5V179.214A3,3,0,0,0,5,182.218Zm3-174.211H38.044V50.058H8.007Zm0,48.058H38.044v6.007H8.007Zm0,12.015H38.044v84.1H8.007Zm0,90.109H38.044v18.022H8.007Z" transform="translate(-2 -2)"/>
        <rect id="Rectangle_9" data-name="Rectangle 9" width="7.179" height="8.974" transform="translate(10.874 160.633)"/>
        <path id="Path_46" data-name="Path 46" d="M6,9V24.022h6.007V12.007h6.007V6H9A3,3,0,0,0,6,9Z" transform="translate(6.015 6.015)"/>
        <rect id="Rectangle_10" data-name="Rectangle 10" width="7.179" height="5.384" transform="translate(10.874 36.795)"/>
        <path id="Path_47" data-name="Path 47" d="M21,162.182H63.054a3,3,0,0,0,3-3V15a3,3,0,0,0-3-3H21a3,3,0,0,0-3,3V159.178A3,3,0,0,0,21,162.182Zm3-144.174H60.051V54.051H24.007Zm0,42.051H60.051v96.116H24.007Z" transform="translate(30.058 18.036)"/>
        <rect id="Rectangle_11" data-name="Rectangle 11" width="19.742" height="3.59" transform="translate(10.874 117.344)"/>
        <rect id="Rectangle_12" data-name="Rectangle 12" width="19.742" height="4.234" transform="translate(10.874 124.738)"/>
        <rect id="Rectangle_13" data-name="Rectangle 13" width="25.127" height="5.384" transform="translate(59.333 142.042)"/>
        <rect id="Rectangle_14" data-name="Rectangle 14" width="25.127" height="5.384" transform="translate(59.333 151.66)"/>
        <path id="Path_49" data-name="Path 49" d="M105.083,35H45.011A9.011,9.011,0,0,0,36,44.011v69.084a3,3,0,0,0,3,3h72.087a3,3,0,0,0,3-3V44.011A9.011,9.011,0,0,0,105.084,35Zm3,75.091H42.007v-6.007h66.08Zm0-12.015H42.007V65.036h6.007V83.058a9.011,9.011,0,0,0,9.011,9.011H93.069a9.011,9.011,0,0,0,9.011-9.011V65.036h6.007ZM54.022,83.058V65.036H96.073V83.058a3,3,0,0,1-3,3H57.025A3,3,0,0,1,54.022,83.058Zm54.065-24.029H42.007V44.011a3,3,0,0,1,3-3h60.073a3,3,0,0,1,3,3Z" transform="translate(66.123 64.12)"/>
        <rect id="Rectangle_15" data-name="Rectangle 15" width="8.974" height="8.974" transform="translate(161.634 108.585)"/>
        <rect id="Rectangle_16" data-name="Rectangle 16" width="5.384" height="8.974" transform="translate(150.865 108.585)"/>
      </g>
    </g>
    <g id="Group_8" data-name="Group 8" transform="translate(5771.033 2599.848)">
      <g id="Ellipse_5" data-name="Ellipse 5" transform="translate(72.82 0)" fill="#fff" stroke="#f8beae" stroke-width="5">
        <ellipse cx="186.655" cy="186.655" rx="186.655" ry="186.655" stroke="none"/>
        <ellipse cx="186.655" cy="186.655" rx="184.155" ry="184.155" fill="none"/>
      </g>
      <path id="Path_55" data-name="Path 55" d="M3.843,8.382v-59.31H28.812l.073,8.2H15.851l.073,16.036h10.91l.073,8.42-11.056-.073.073,26.726Zm30.973,0v-59.31H46.824V8.382Zm21.088,0v-59.31H67.912L67.985.181H81.9v8.2Zm33.755,0-.073-50.3-9.153-.073v-8.933h30.314v9.006l-9.079-.073.073,50.377Zm26.433,0v-59.31h25.774l.073,8.347L128.1-42.654l.073,15.816,10.617.073v8.347l-10.69-.073L128.173.181h13.839l.073,8.2Zm32.071,0v-59.31H163.54a34.353,34.353,0,0,1,10.288,1.355,12,12,0,0,1,6.59,4.8q2.307,3.441,2.307,9.519a30.247,30.247,0,0,1-.622,6.48,12.506,12.506,0,0,1-2.2,4.906,10.8,10.8,0,0,1-4.43,3.332l8.2,28.923H171.3l-6.81-26.872h-4.247V8.382Zm12.082-34.048h3.515a9.411,9.411,0,0,0,4.613-.952,5.214,5.214,0,0,0,2.38-2.892,14.329,14.329,0,0,0,.7-4.8,10.929,10.929,0,0,0-1.5-6.26q-1.5-2.16-5.6-2.16h-4.1ZM208.937,8.382v-59.31h24.969l.073,8.2H220.945l.073,16.036h10.91l.073,8.42-11.056-.073.073,26.726Zm30.826,0v-59.31H255.14a34.353,34.353,0,0,1,10.288,1.355,12,12,0,0,1,6.59,4.8q2.306,3.441,2.306,9.519a30.252,30.252,0,0,1-.622,6.48,12.506,12.506,0,0,1-2.2,4.906,10.8,10.8,0,0,1-4.43,3.332l8.2,28.923H262.9l-6.81-26.872h-4.247V8.382Zm12.082-34.048h3.515a9.411,9.411,0,0,0,4.613-.952,5.213,5.213,0,0,0,2.38-2.892,14.328,14.328,0,0,0,.7-4.8,10.929,10.929,0,0,0-1.5-6.26q-1.5-2.16-5.6-2.16h-4.1ZM282.232,8.382v-59.31h25.774l.073,8.347-13.839-.073.073,15.816,10.617.073v8.347l-10.69-.073L294.314.181h13.839l.073,8.2Zm32.071,0v-59.31h25.774l.073,8.347-13.839-.073.073,15.816L337-26.765v8.347l-10.69-.073L326.385.181h13.839l.073,8.2Zm65.533.879q-6,0-9.519-2.526A13.712,13.712,0,0,1,365.3-.441a35.2,35.2,0,0,1-1.5-10.8V-31.085a34.873,34.873,0,0,1,1.538-10.983,13.109,13.109,0,0,1,5.382-7.1q3.844-2.49,10.434-2.49,6.37,0,10.068,2.123a12.116,12.116,0,0,1,5.309,6,23.99,23.99,0,0,1,1.611,9.226v3.441H386.353v-4.174a25.918,25.918,0,0,0-.293-4.137,4.88,4.88,0,0,0-1.355-2.819,4.774,4.774,0,0,0-3.4-1.025,4.462,4.462,0,0,0-3.515,1.245,6.058,6.058,0,0,0-1.391,3.185,27.738,27.738,0,0,0-.293,4.137V-8.166a20.668,20.668,0,0,0,.439,4.467,5.688,5.688,0,0,0,1.647,3.075,5,5,0,0,0,3.478,1.1A4.931,4.931,0,0,0,385.182-.7,6.205,6.205,0,0,0,386.9-3.883a19.972,19.972,0,0,0,.476-4.576v-6.3h-5.785v-7.322h16.695V8.382H390.38l-.732-5.345A10.89,10.89,0,0,1,386.133,7.5,10.254,10.254,0,0,1,379.836,9.26Zm26.726-.879v-59.31h12.008L418.644.181h13.912v8.2Zm47.374.805q-6.517,0-10.324-2.343a13.034,13.034,0,0,1-5.455-6.7A29.534,29.534,0,0,1,436.51-10.29V-32.4a29.227,29.227,0,0,1,1.647-10.4,12.685,12.685,0,0,1,5.455-6.59q3.808-2.27,10.324-2.27,6.59,0,10.434,2.306a12.828,12.828,0,0,1,5.492,6.59A28.923,28.923,0,0,1,471.51-32.4V-10.29A29.534,29.534,0,0,1,469.863.144a12.982,12.982,0,0,1-5.492,6.7Q460.527,9.187,453.937,9.187Zm0-8.713a4.8,4.8,0,0,0,3.441-1.062,5.335,5.335,0,0,0,1.464-2.856,19.215,19.215,0,0,0,.366-3.844V-35.332a18.673,18.673,0,0,0-.366-3.808,5.311,5.311,0,0,0-1.464-2.819,4.8,4.8,0,0,0-3.441-1.062,4.571,4.571,0,0,0-3.295,1.062,5.311,5.311,0,0,0-1.464,2.819,18.67,18.67,0,0,0-.366,3.808V-7.288a21.277,21.277,0,0,0,.33,3.844,5.136,5.136,0,0,0,1.428,2.856A4.685,4.685,0,0,0,453.937.474ZM484.91,8.382l-7.688-59.31h10.251l4.1,36.245,5.2-36.172H504.9l5.418,36.1,4.1-36.172h10.1l-7.615,59.31H506.656l-5.785-37.563L495.38,8.382Z" transform="translate(-3.843 492.714)" fill="#131313"/>
      <path id="noun_heart_glow_807433-2" data-name="noun_heart glow_807433" d="M158.595,61.7c0-7.6-11.4-7.6-11.4,0V84.5c0,7.6,11.4,7.6,11.4,0Zm0,162.442c0-7.6-11.4-7.6-11.4,0v19.949c0,7.6,11.4,7.6,11.4,0ZM228.171,85.679c5.375-5.374-2.687-13.434-8.059-8.061L205.863,91.868c-5.375,5.374,2.687,13.434,8.059,8.061ZM108.478,205.373c5.374-5.372-2.687-13.434-8.061-8.059L86.168,211.562c-5.374,5.372,2.687,13.434,8.061,8.059ZM85.679,77.618c-5.374-5.374-13.434,2.687-8.061,8.061L91.868,99.928c5.374,5.374,13.434-2.687,8.061-8.061ZM205.372,197.313c-5.372-5.375-13.434,2.687-8.059,8.059l14.249,14.249c5.372,5.375,13.434-2.687,8.059-8.059Zm38.718-38.718c7.6,0,7.6-11.4,0-11.4H224.142c-7.6,0-7.6,11.4,0,11.4Zm-162.442,0c7.6,0,7.6-11.4,0-11.4H61.7c-7.6,0-7.6,11.4,0,11.4Z" transform="translate(106.897 33.23)" fill-rule="evenodd"/>
      <g id="noun_Smile_1740164" transform="translate(211.712 138.124)">
        <path id="Path_50" data-name="Path 50" d="M52.022,956.362a48.022,48.022,0,1,0,48.022,48.022A48.07,48.07,0,0,0,52.022,956.362Zm0,6.264a41.758,41.758,0,1,1-41.758,41.759,41.711,41.711,0,0,1,41.758-41.759ZM34.275,984.549a7.308,7.308,0,1,0,7.308,7.308A7.308,7.308,0,0,0,34.275,984.549Zm35.495,0a7.308,7.308,0,1,0,7.308,7.308A7.308,7.308,0,0,0,69.769,984.549Zm-41.041,29.231a3.019,3.019,0,0,0-2.479,1.631,3.17,3.17,0,0,0,.2,3.23,30.445,30.445,0,0,0,51.154,0,3.238,3.238,0,0,0-.848-4.339,3.279,3.279,0,0,0-4.372.848,24.15,24.15,0,0,1-40.714,0A3.6,3.6,0,0,0,28.729,1013.779Z" transform="translate(-4 -956.362)" stroke="#000" stroke-width="1.3"/>
      </g>
    </g>
  </g>
</svg>
