<svg height='100px' width='100px'  fill="#000000" xmlns="http://www.w3.org/2000/svg" viewBox="0 0 64 64" x="0px" y="0px"><g><path d="M3,62H15a1,1,0,0,0,1-1V3a1,1,0,0,0-1-1H3A1,1,0,0,0,2,3V61A1,1,0,0,0,3,62ZM4,4H14V18H4ZM4,20H14v2H4Zm0,4H14V52H4ZM4,54H14v6H4Z"></path><rect x="6" y="56" width="2" height="2"></rect><path d="M6,7v5H8V8h2V6H7A1,1,0,0,0,6,7Z"></path><rect x="6" y="14" width="2" height="2"></rect><path d="M19,62H33a1,1,0,0,0,1-1V13a1,1,0,0,0-1-1H19a1,1,0,0,0-1,1V61A1,1,0,0,0,19,62Zm1-48H32V26H20Zm0,14H32V60H20Z"></path><path d="M29,30H23a1,1,0,0,0-1,1V45a1,1,0,0,0,1,1h6a1,1,0,0,0,1-1V31A1,1,0,0,0,29,30ZM28,44H24V32h4Z"></path><rect x="6" y="40" width="6" height="2"></rect><rect x="6" y="44" width="6" height="2"></rect><rect x="22" y="48" width="8" height="2"></rect><rect x="22" y="52" width="8" height="2"></rect><path d="M59,35H39a3,3,0,0,0-3,3V61a1,1,0,0,0,1,1H61a1,1,0,0,0,1-1V38A3,3,0,0,0,59,35Zm1,25H38V58H60Zm0-4H38V45h2v6a3,3,0,0,0,3,3H55a3,3,0,0,0,3-3V45h2ZM42,51V45H56v6a1,1,0,0,1-1,1H43A1,1,0,0,1,42,51Zm18-8H38V38a1,1,0,0,1,1-1H59a1,1,0,0,1,1,1Z"></path><rect x="56" y="39" width="2" height="2"></rect><rect x="52" y="39" width="2" height="2"></rect></g></svg>