<svg height='100px' width='100px'  fill="#000000" xmlns="http://www.w3.org/2000/svg" viewBox="0 0 68 68" x="0px" y="0px"><path fill="#000000" fill-rule="evenodd" d="M88.7775251,75.949098 C84.4827037,71.6542765 77.5145178,71.6570551 73.2190789,75.952494 L72.952494,76.2190789 C68.6568127,80.5147602 68.6566969,87.485124 72.949098,91.7775251 L88.5857864,107.414214 C89.366835,108.195262 90.633165,108.195262 91.4142136,107.414214 L107.050902,91.7775251 C111.343303,87.485124 111.343187,80.5147602 107.047506,76.2190789 L106.780921,75.952494 C102.485482,71.6570551 95.5172963,71.6542765 91.2224749,75.949098 L90,77.1715729 L88.7775251,75.949098 Z M75.7775251,88.949098 C73.0472422,86.2188151 73.0473159,81.7811112 75.7809211,79.047506 L76.047506,78.7809211 C78.7813525,76.0470746 83.2168789,76.045306 85.949098,78.7775251 L88.5857864,81.4142136 C89.366835,82.1952621 90.633165,82.1952621 91.4142136,81.4142136 L94.050902,78.7775251 C96.7831211,76.045306 101.218648,76.0470746 103.952494,78.7809211 L104.219079,79.047506 C106.952684,81.7811112 106.952758,86.2188151 104.222475,88.949098 L90,103.171573 L75.7775251,88.949098 Z M92,58 C92,55.3333333 88,55.3333333 88,58 L88,66 C88,68.6666667 92,68.6666667 92,66 L92,58 Z M92,115 C92,112.333333 88,112.333333 88,115 L88,122 C88,124.666667 92,124.666667 92,122 L92,115 Z M116.414214,66.4142136 C118.299832,64.5285955 115.471405,61.7001684 113.585786,63.5857864 L108.585786,68.5857864 C106.700168,70.4714045 109.528595,73.2998316 111.414214,71.4142136 L116.414214,66.4142136 Z M74.4142136,108.414214 C76.2998316,106.528595 73.4714045,103.700168 71.5857864,105.585786 L66.5857864,110.585786 C64.7001684,112.471405 67.5285955,115.299832 69.4142136,113.414214 L74.4142136,108.414214 Z M66.4142136,63.5857864 C64.5285955,61.7001684 61.7001684,64.5285955 63.5857864,66.4142136 L68.5857864,71.4142136 C70.4714045,73.2998316 73.2998316,70.4714045 71.4142136,68.5857864 L66.4142136,63.5857864 Z M108.414214,105.585786 C106.528595,103.700168 103.700168,106.528595 105.585786,108.414214 L110.585786,113.414214 C112.471405,115.299832 115.299832,112.471405 113.414214,110.585786 L108.414214,105.585786 Z M122,92 C124.666667,92 124.666667,88 122,88 L115,88 C112.333333,88 112.333333,92 115,92 L122,92 Z M65,92 C67.6666667,92 67.6666667,88 65,88 L58,88 C55.3333333,88 55.3333333,92 58,92 L65,92 Z" transform="translate(-56 -56)"></path></svg>