<svg height='100px' width='100px'  fill="#000000" xmlns="http://www.w3.org/2000/svg" data-name="Слой 3" viewBox="0 0 254.89 272.67" x="0px" y="0px"><title>69</title><path d="M150.13,189.52c-33.21,0-60.23-29.13-60.23-64.94,0-30.65,42-90.53,54.84-108.15a6.63,6.63,0,0,1,10.77,0c12.86,17.62,54.84,77.5,54.84,108.15C210.35,160.39,183.33,189.52,150.13,189.52Zm0-163.69C126.32,59,99.78,103.35,99.78,124.58c0,30.36,22.58,55.06,50.35,55.06s50.34-24.7,50.34-55.06C200.47,103.35,173.93,59,150.13,25.83Z" transform="translate(-22.68 -13.67)"></path><path d="M272.63,227.06c-16.51,0-24.84-4.3-32.89-8.46-7.33-3.78-14.25-7.35-28.36-7.35s-21,3.57-28.36,7.35c-8.05,4.16-16.38,8.46-32.89,8.46s-24.84-4.3-32.89-8.46c-7.33-3.78-14.25-7.35-28.37-7.35s-21,3.57-28.36,7.35c-8,4.16-16.38,8.46-32.89,8.46a4.94,4.94,0,0,1,0-9.88c14.11,0,21-3.57,28.36-7.36,8.05-4.15,16.38-8.45,32.89-8.45s24.84,4.3,32.9,8.45c7.32,3.79,14.24,7.36,28.36,7.36s21-3.57,28.36-7.36c8-4.15,16.38-8.45,32.89-8.45s24.84,4.3,32.89,8.45c7.33,3.79,14.25,7.36,28.36,7.36a4.94,4.94,0,0,1,0,9.88Z" transform="translate(-22.68 -13.67)"></path><path d="M272.63,256.7c-16.51,0-24.84-4.3-32.89-8.46-7.33-3.78-14.25-7.35-28.36-7.35s-21,3.57-28.36,7.35c-8.05,4.16-16.38,8.46-32.89,8.46s-24.84-4.3-32.89-8.46c-7.33-3.78-14.25-7.35-28.37-7.35s-21,3.57-28.36,7.35c-8,4.16-16.38,8.46-32.89,8.46a4.94,4.94,0,0,1,0-9.88c14.11,0,21-3.58,28.36-7.36C64,235.31,72.36,231,88.87,231s24.84,4.3,32.9,8.45c7.32,3.78,14.24,7.36,28.36,7.36s21-3.58,28.36-7.36c8-4.15,16.38-8.45,32.89-8.45s24.84,4.3,32.89,8.45c7.33,3.78,14.25,7.36,28.36,7.36a4.94,4.94,0,0,1,0,9.88Z" transform="translate(-22.68 -13.67)"></path><path d="M272.63,286.33c-16.51,0-24.84-4.29-32.89-8.45-7.33-3.78-14.25-7.35-28.36-7.35s-21,3.57-28.36,7.35c-8.05,4.16-16.38,8.45-32.89,8.45s-24.84-4.29-32.89-8.45c-7.33-3.78-14.25-7.35-28.37-7.35s-21,3.57-28.36,7.35c-8,4.16-16.38,8.45-32.89,8.45a4.94,4.94,0,0,1,0-9.88c14.11,0,21-3.57,28.36-7.35,8.05-4.15,16.38-8.45,32.89-8.45s24.84,4.3,32.9,8.45c7.32,3.78,14.24,7.35,28.36,7.35s21-3.57,28.36-7.35c8-4.15,16.38-8.45,32.89-8.45s24.84,4.3,32.89,8.45c7.33,3.78,14.25,7.35,28.36,7.35a4.94,4.94,0,0,1,0,9.88Z" transform="translate(-22.68 -13.67)"></path></svg>