<svg height='100px' width='100px'  fill="#000000" xmlns="http://www.w3.org/2000/svg" data-name="Layer 1" viewBox="0 0 64 64" x="0px" y="0px"><path d="M18.877,44.941l-6.008-3.433.817-3.265a1,1,0,0,0-.263-.95L11.86,35.73l.541-1.622,6.173.882a.969.969,0,0,0,.142.01,1.012,1.012,0,0,0,.447-.1l2-1-.894-1.79-1.721.861-6.53-.933-1.21-.605.9-6.286a1,1,0,0,0-.476-1L7,21.6,12.624,9.419a1.006,1.006,0,0,0,.054-.694l-2-7-1.924.55,1.9,6.643L5.184,20.767a2,2,0,0,0,.787,2.552l3.661,2.2-.906,6.342A1,1,0,0,0,9.269,32.9l1.224.612-.725,2.177a1,1,0,0,0,.241,1.023l1.6,1.6-.679,2.716a2.007,2.007,0,0,0,.949,2.221L17.9,46.683a2,2,0,0,0,1.383.224,1.009,1.009,0,0,0,.123-.032l7.5-2.524,1.767,12.362-3.73,4.662,1.562,1.25,4-5a1,1,0,0,0,.209-.767L28.826,43.7l5.209-1.753-.639-1.9Z"></path><path d="M12.269,23.105l.894,1.79a2.866,2.866,0,0,0,1.011-4.284L12.516,18.4l-1.6,1.2,1.658,2.211a.864.864,0,0,1-.3,1.294Z"></path><path d="M26.087,6.071l-6.66-2.664h0l-.839-.336-2.5-1-.742,1.858,1.555.622a8.359,8.359,0,0,0,.172,4.829l-1.727.691.742,1.858,10-4a1,1,0,0,0,0-1.858Zm-6.518.782a2.334,2.334,0,0,1-.687,1.7,6.9,6.9,0,0,1-.148-3.183A2.5,2.5,0,0,1,19.569,6.853Zm1.959.745a3.7,3.7,0,0,0,.033-.929c-.009-.1-.036-.182-.052-.275L23.023,7Z"></path><path d="M48,14A14,14,0,1,0,62,28,14.015,14.015,0,0,0,48,14Zm0,26A12,12,0,1,1,60,28,12.013,12.013,0,0,1,48,40Z"></path><rect x="23" y="18" width="2" height="2"></rect><rect x="26" y="24" width="2" height="2"></rect><rect x="29" y="16" width="2" height="2"></rect><rect x="20" y="26" width="2" height="2"></rect><path d="M51.869,29.836l-1.164-1.4a4,4,0,0,0-6.651.773l-.119.239a1.991,1.991,0,0,1-1.789,1.105H39v2h3.146a3.979,3.979,0,0,0,3.578-2.212l.119-.238a2,2,0,0,1,3.325-.386l1.164,1.4a3.994,3.994,0,0,0,3.073,1.439H57v-2H53.405A2,2,0,0,1,51.869,29.836Z"></path><rect x="43.5" y="19.5" width="2" height="5" transform="translate(-4.3 31.1) rotate(-36.87)"></rect><rect x="48" y="21" width="5" height="2" transform="translate(2.595 49.191) rotate(-53.119)"></rect><rect x="51.95" y="24.5" width="5.099" height="2" transform="translate(-3.943 11.184) rotate(-11.31)"></rect></svg>