<svg height='100px' width='100px'  fill="#000000" xmlns="http://www.w3.org/2000/svg" data-name="Layer 1" viewBox="0 0 64 64" x="0px" y="0px"><path d="M9.842,13.084l6.777-2.247A9.3,9.3,0,0,0,23,2H21a7.3,7.3,0,0,1-5.01,6.938L9.252,11.173A10.044,10.044,0,0,0,2,20.789V47.474a7.826,7.826,0,0,0,1.885,5.094L8.241,57.65l1.518-1.3L5.4,51.267A5.836,5.836,0,0,1,4,47.474V20.789A8.049,8.049,0,0,1,9.842,13.084Z"></path><path d="M62,18A11.992,11.992,0,0,0,43.268,8.073,7.3,7.3,0,0,1,40,2H38a9.306,9.306,0,0,0,3.659,7.391,11.973,11.973,0,0,0,4.418,19.937L44.045,36.95a15,15,0,0,0,.1,8.1l3,10.186A21.048,21.048,0,0,1,48,61.177V62h2v-.823a23.035,23.035,0,0,0-.937-6.507l-3-10.187a12.986,12.986,0,0,1-.089-7.017L47,33.631V43a22.03,22.03,0,0,0,3.152,11.347l1.7-1.057A20,20,0,0,1,49,43V29.949c.331.028.662.051,1,.051a11.921,11.921,0,0,0,7-2.273V45.689a21.877,21.877,0,0,0,1.779,8.666l1.3,3.039,1.838-.788-1.3-3.038A19.893,19.893,0,0,1,59,45.689V25.911A11.938,11.938,0,0,0,62,18ZM40,18A10,10,0,1,1,50,28,10.011,10.011,0,0,1,40,18Z"></path><path d="M13.955,25.7A1,1,0,0,0,12,26V44.172a7.775,7.775,0,0,0,2.112,5.349L12.468,53.9A22.991,22.991,0,0,0,11,62h2a20.981,20.981,0,0,1,1.341-7.394l3.8-10.132a7.645,7.645,0,0,0,.137-4.936Zm2.313,18.069-1.337,3.565A5.792,5.792,0,0,1,14,44.172V32.553l2.369,7.582A5.628,5.628,0,0,1,16.268,43.771Z"></path><path d="M30.569,20.208,31,15.083,29,14.917l-.427,5.125a44.516,44.516,0,0,0,1.03,13.9,42.716,42.716,0,0,1-.139,20.064l-.437,1.75,1.94.484.438-1.75a44.747,44.747,0,0,0,.146-21.007A42.464,42.464,0,0,1,30.569,20.208Z"></path><path d="M35,25H33c0,.554.064,5.479,2.293,7.707C37.42,34.835,38.668,35,39,35l.081-2c-.008,0-.807-.145-2.374-1.711C35.312,29.9,35,26.276,35,25Z"></path><path d="M22.293,31.293A6.783,6.783,0,0,1,20,33v2c.332,0,1.58-.165,3.707-2.293C25.936,30.479,26,25.554,26,25H24C24,26.276,23.688,29.9,22.293,31.293Z"></path><rect x="18" y="15" width="2" height="2"></rect><rect x="21" y="20" width="2" height="2"></rect><rect x="34" y="13" width="2" height="2"></rect><rect x="10" y="16" width="2" height="2"></rect><path d="M59,19H55.405a2,2,0,0,1-1.536-.719l-1.164-1.4a4,4,0,0,0-6.651.772l-.119.24A1.991,1.991,0,0,1,44.146,19H41v2h3.146a3.98,3.98,0,0,0,3.578-2.211l.119-.239a2,2,0,0,1,3.325-.387l1.165,1.4A3.989,3.989,0,0,0,55.405,21H59Z"></path><rect x="48.438" y="11" width="4.123" height="2" transform="translate(26.627 58.09) rotate(-75.984)"></rect><rect x="52.379" y="13.5" width="4.243" height="2" transform="translate(5.71 42.784) rotate(-45)"></rect></svg>