<svg height='100px' width='100px'  fill="#000000" xmlns="http://www.w3.org/2000/svg" xmlns:xlink="http://www.w3.org/1999/xlink" version="1.1" x="0px" y="0px" viewBox="0 0 50 50" enable-background="new 0 0 50 50" xml:space="preserve"><g><path d="M25,49c13.4,0,24-10.9,24-24C49,11.7,38.1,1,25,1C11.8,1,1,11.8,1,25C1,38.3,11.8,49,25,49z M20.3,46.5l1.1-3.4l3.3-2.6   c0.4-0.3,0.5-1,0.1-1.4c-0.3-0.4-1-0.5-1.4-0.1l-3.5,2.8c-0.2,0.1-0.3,0.3-0.3,0.5L18.4,46c-4.7-1.5-8.7-4.5-11.4-8.4l2.2-3.9   l4.4-2.9l4.6,4.6l-2.4,1.9c-0.4,0.3-0.5,1-0.2,1.4c0.3,0.4,1,0.5,1.4,0.2l6-4.8l5.6,4.7c0.1,0.4-0.3-0.5,4.3,6.7   C30.4,46.5,27.8,47,25,47C23.4,47,21.8,46.8,20.3,46.5z M46.6,29l-5.4-1l-0.7-4.6l5-6.5c1,2.5,1.6,5.3,1.6,8.1   C47,26.4,46.9,27.7,46.6,29z M25.9,3l-4.7,8.6c-0.2,0.4-0.1,0.9,0.2,1.2l4.2,4.1c0.4,0.4,1,0.4,1.4,0c0.4-0.4,0.4-1,0-1.4l-3.6-3.6   L28,3.2c1.2,0.2,2.5,0.4,3.6,0.8l3.2,4.4c0,0.1,0.1,0.1,0.2,0.2l1.7,1.4v5.2l-1.4,1.4c-0.2,0.2-0.3,0.5-0.3,0.9   c0.1,0.3,0.3,0.6,0.5,0.7l0.7,0.4l-1.3,2c-0.3,0.5-0.1,1.1,0.3,1.4c0.5,0.3,1.1,0.1,1.4-0.3l1.9-3c0.1-0.2,0.2-0.5,0.1-0.8   s-0.3-0.5-0.5-0.6L37.7,17l0.7-0.7c0.2-0.2,0.3-0.4,0.3-0.7V9.5c0-0.3-0.1-0.6-0.4-0.8l-1.9-1.6l-1.2-1.6c3.9,2.1,7.2,5.3,9.2,9.3   l-5.9,7.7c-0.2,0.2-0.2,0.5-0.2,0.8l0.9,5.7c0.1,0.4,0.4,0.7,0.8,0.8l6,1.1c-1.7,6-5.9,11-11.4,13.8l-4-6.2l4.1-1.7H35c0,0,0,0,0,0   c0,0,0,0,0,0h5.3c0.6,0,1-0.4,1-1s-0.4-1-1-1h-4.7l-1-2.5l3.4-4.1c0.4-0.4,0.3-1.1-0.1-1.4c-0.4-0.4-1.1-0.3-1.4,0.1l-3.8,4.5   c-0.2,0.3-0.3,0.7-0.2,1l1.1,2.6l-4.2,1.7l-4.8-4.1l1-0.8c0.2-0.2,0.4-0.5,0.4-0.8c0-0.3-0.2-0.6-0.4-0.8l-3.4-2.5l1-5.7l3.7,0.7   c0.4,0.1,0.7-0.1,1-0.4l4.1-5.3c0.2-0.3,0.3-0.7,0.1-1l-0.4-0.8l0.9-1.4c0.3-0.5,0.2-1.1-0.3-1.4c-0.5-0.3-1.1-0.2-1.4,0.3   l-1.2,1.8c-0.2,0.3-0.2,0.6-0.1,0.9l0.3,0.8l-3.4,4.4l-4.1-0.7c-0.3,0-0.5,0-0.8,0.2s-0.4,0.4-0.4,0.6l-1.3,7.3   c-0.1,0.4,0.1,0.7,0.4,1l2.9,2.1l-3.6,2.9l-5.3-5.3c-0.3-0.3-0.9-0.4-1.3-0.1l-5.3,3.5c-0.1,0.1-0.2,0.2-0.3,0.3l-1.7,3.1   c-1-1.9-1.8-3.9-2.3-6.1l6.2-2.9c0.5-0.2,0.7-0.8,0.5-1.2l-1.3-3.6l3.8-7.2l4.5,5c0.4,0.4,1,0.4,1.4,0.1c0.4-0.4,0.4-1,0.1-1.4   l-5-5.5l0.5-0.9c0.2-0.3,0.2-0.6,0-0.9L12.3,7c3.6-2.5,8-4,12.7-4C25.3,3,25.6,3,25.9,3z M10.7,8.3l1.5,3.1L7,21.3   c-0.1,0.2-0.2,0.5-0.1,0.8L8,25.2l-4.9,2.3C3.1,26.7,3,25.8,3,25C3,18.3,6,12.3,10.7,8.3z"></path></g></svg>