<svg height='100px' width='100px'  fill="#000000" xmlns:dc="http://purl.org/dc/elements/1.1/" xmlns:cc="http://creativecommons.org/ns#" xmlns:rdf="http://www.w3.org/1999/02/22-rdf-syntax-ns#" xmlns:svg="http://www.w3.org/2000/svg" xmlns="http://www.w3.org/2000/svg" xmlns:sodipodi="http://sodipodi.sourceforge.net/DTD/sodipodi-0.dtd" xmlns:inkscape="http://www.inkscape.org/namespaces/inkscape" version="1.1" x="0px" y="0px" viewBox="0 0 100 100"><g transform="translate(0,-952.36218)"><path style="text-indent:0;text-transform:none;direction:ltr;block-progression:tb;baseline-shift:baseline;color:#000000;enable-background:accumulate;" d="m 49.999999,956.36219 c -25.3695,0 -46,20.6306 -46,46.00001 0,25.3695 20.6305,46 46,46 25.369502,0 46.000002,-20.6305 46.000002,-46 0,-25.36941 -20.6305,-46.00001 -46.000002,-46.00001 z m 0,6 c 22.126902,0 40.000002,17.8732 40.000002,40.00001 0,22.1269 -17.8731,40 -40.000002,40 -22.1269,0 -40,-17.8731 -40,-40 0,-22.12681 17.8731,-40.00001 40,-40.00001 z m -17,21 c -3.8661,0 -7,3.134 -7,7 0,3.866 3.1339,6.99999 7,6.99999 3.866,0 7,-3.13399 7,-6.99999 0,-3.866 -3.134,-7 -7,-7 z m 34,0 c -3.866,0 -7,3.134 -7,7 0,3.866 3.134,6.99999 7,6.99999 3.866102,0 7.000002,-3.13399 7.000002,-6.99999 0,-3.866 -3.1339,-7 -7.000002,-7 z m -39.3125,28.00001 c -0.9639,0.056 -1.8439,0.6004 -2.375,1.5625 -0.5063,0.9676 -0.438,2.1986 0.1875,3.0937 5.3626,8.0218 14.3465,13.3438 24.5,13.3438 10.1535,0 19.137402,-5.322 24.500002,-13.3438 0.8754,-1.3089 0.4965,-3.2808 -0.8125,-4.1562 -1.309,-0.8754 -3.3121,-0.4965 -4.1875,0.8125 -4.331202,6.4789 -11.431702,10.6875 -19.500002,10.6875 -8.0683,0 -15.1688,-4.2086 -19.5,-10.6875 -0.8122,-0.9528 -1.8486,-1.3688 -2.8125,-1.3125 z" fill="#000000" fill-opacity="1" stroke="none" marker="none" visibility="visible" display="inline" overflow="visible"></path></g></svg>