<svg height='100px' width='100px'  fill="#000000" xmlns="http://www.w3.org/2000/svg" xmlns:xlink="http://www.w3.org/1999/xlink" version="1.1" x="0px" y="0px" viewBox="0 0 595.3 841.9" style="enable-background:new 0 0 595.3 841.9;" xml:space="preserve"><style type="text/css">
	.st0{fill:none;stroke:#000000;stroke-width:10;stroke-miterlimit:10;}
</style><path class="st0" d="M424,397.8l0-95.7c0,0,0,0,0,0l0-13.5c-1.5-20.8-63.6-37.5-139.9-37.5s-138.5,16.7-139.9,37.5l0,13.5  c0,0,0,0-0.1,0c0,60.6,0,121.2,0,181.8l0,95.7h0c0,4.5,0,9,0,13.5c1.5,20.8,63.6,37.5,139.9,37.5s138.5-16.7,139.9-37.5l0-13.5h0.1  L424,397.8z"></path><path class="st0" d="M144.3,287.1c4.4,20,65.3,35.9,139.7,35.9s135.3-15.9,139.7-35.9"></path></svg>