<?xml version="1.0" encoding="UTF-8"?>
<svg width="141px" height="24px" viewBox="0 0 141 24" version="1.1" xmlns="http://www.w3.org/2000/svg" xmlns:xlink="http://www.w3.org/1999/xlink">
    <!-- Generator: Sketch 62 (91390) - https://sketch.com -->
    <title>Artboard Copy</title>
    <desc>Created with Sketch.</desc>
    <defs>
        <linearGradient x1="80.5242928%" y1="85.6202908%" x2="45.7530144%" y2="37.6798239%" id="linearGradient-1">
            <stop stop-color="#CE5DCB" offset="0%"></stop>
            <stop stop-color="#C558CC" offset="20.95%"></stop>
            <stop stop-color="#AC4ACF" offset="55.25%"></stop>
            <stop stop-color="#8534D4" offset="98.45%"></stop>
            <stop stop-color="#8333D4" offset="100%"></stop>
        </linearGradient>
        <linearGradient x1="-0.00122003011%" y1="49.9952968%" x2="99.9968433%" y2="49.9952968%" id="linearGradient-2">
            <stop stop-color="#FF5667" offset="2.37%"></stop>
            <stop stop-color="#FC8B82" offset="65.92%"></stop>
            <stop stop-color="#FBA28E" offset="100%"></stop>
        </linearGradient>
        <linearGradient x1="0%" y1="13.42004%" x2="19.18346%" y2="13.42004%" id="linearGradient-3">
            <stop stop-color="#00B874" offset="0%"></stop>
            <stop stop-color="#29D3A2" offset="51.26%"></stop>
            <stop stop-color="#53DFB6" offset="68.17%"></stop>
            <stop stop-color="#9FF4D9" offset="100%"></stop>
        </linearGradient>
        <linearGradient x1="-0.00260647448%" y1="50.000149%" x2="99.9997915%" y2="50.000149%" id="linearGradient-4">
            <stop stop-color="#00B874" offset="0%"></stop>
            <stop stop-color="#29D3A2" offset="51.26%"></stop>
            <stop stop-color="#53DFB6" offset="68.17%"></stop>
            <stop stop-color="#9FF4D9" offset="100%"></stop>
        </linearGradient>
        <linearGradient x1="-0.00281499244%" y1="49.9994784%" x2="99.9985404%" y2="49.9994784%" id="linearGradient-5">
            <stop stop-color="#FCD77E" offset="0%"></stop>
            <stop stop-color="#FEA500" offset="52.41%"></stop>
            <stop stop-color="#FF5B00" offset="100%"></stop>
        </linearGradient>
    </defs>
    <g id="Artboard-Copy" stroke="none" stroke-width="1" fill="none" fill-rule="evenodd">
        <g id="Group" transform="translate(0.000000, 1.000000)" fill-rule="nonzero">
            <g id="Sezzle_Logo_FullColor">
                <path d="M1.43486718,14.2215049 C3.34767019,16.1343079 6.44842453,16.1343079 8.36122753,14.2215049 L8.5445599,14.0381725 C9.50043154,13.0823009 7.58762854,8.0676838 8.5445599,7.11181217 L1.43486718,14.2215049 Z" id="Path" fill="url(#linearGradient-1)"></path>
                <path d="M8.72895199,6.92742008 L8.54561962,7.11075244 C7.58974798,8.06662408 9.50149126,13.0812412 8.54561962,14.0371128 L15.6553123,6.92742008 C14.698381,5.97154844 13.4457864,5.49361086 12.1921322,5.49361086 C10.9384779,5.49255289 9.68482363,5.97154844 8.72895199,6.92742008" id="Path" fill="url(#linearGradient-2)"></path>
                <g id="SVGID_3_-link" fill="url(#linearGradient-4)">
                    <path d="M1.43486718,7.29514453 C-0.47793582,9.20794753 -0.47793582,12.3087019 1.43486718,14.2215049 L8.73001171,6.92636035 C10.6428147,5.01355735 10.6428147,1.912803 8.73001171,-1.50595931e-15 L1.43486718,7.29514453 Z" id="SVGID_3_"></path>
                </g>
                <path d="M8.36122753,14.2215049 C6.44842453,16.1343079 6.44842453,19.2350622 8.36122753,21.1478652 L15.6563721,13.8527207 C17.5691751,11.9399177 17.5691751,8.83916335 15.6563721,6.92636035 L8.36122753,14.2215049 Z" id="Path" fill="url(#linearGradient-5)"></path>
                <g id="Group-2" transform="translate(22.399400, 1.957311)" fill="#382757" stroke="#382757" stroke-width="0.2">
                    <path d="M21.6363983,8.65477126 C21.4890966,8.15034233 21.2697336,7.66816761 20.9825482,7.22414298 C20.4918957,6.4643204 19.8104927,5.83060506 19.0093409,5.39187905 C17.7450894,4.7019983 16.2349817,4.53986043 14.8456827,4.94467524 C13.4426073,5.35372896 12.2843282,6.28628666 11.5827905,7.57173267 C10.8854917,8.85082033 10.7244135,10.3238376 11.1302881,11.7226741 L11.134527,11.7364506 C11.2277827,12.0480096 11.3772039,12.4464661 11.3803831,12.4528244 C11.8456022,13.5422214 12.6255595,14.3741052 13.7626441,14.9951039 C14.5659154,15.4348896 15.4698605,15.6669693 16.3769848,15.6669693 C16.8983694,15.6669693 17.4186942,15.5917289 17.9241828,15.4423077 C18.993445,15.1296889 19.9260027,14.5129292 20.6307196,13.6460744 L20.675228,13.5909687 C20.8553812,13.3641876 21.0175191,13.1215107 21.1584625,12.8682365 C21.4096172,12.419973 21.2485391,11.8509008 20.8002755,11.5997461 C20.6614516,11.5223862 20.5046124,11.4810569 20.3456537,11.4810569 C20.0076015,11.4810569 19.6960425,11.6633296 19.5317851,11.957933 C19.3018249,12.3691062 18.9966242,12.7272931 18.6257206,13.0197771 C18.5939288,13.0452105 18.5631968,13.0727634 18.5473009,13.0918384 C18.2060696,13.3461723 17.8203298,13.5369228 17.4027983,13.6598508 C16.4893156,13.9279612 15.4931745,13.820929 14.6528128,13.3631279 C14.0985768,13.0611064 13.6354771,12.6128429 13.3059028,12.0639055 L21.0069219,9.80563224 C21.4975744,9.66150969 21.7794611,9.14542378 21.6363983,8.65477126 Z M16.391821,6.57665121 C16.9873862,6.57665121 17.5840112,6.73031129 18.1181124,7.02067584 C18.6447956,7.30786123 19.0962383,7.72645247 19.4226335,8.22982168 C19.4406488,8.25843424 19.4597239,8.28810653 19.4777392,8.31777882 L12.7728613,10.2846278 C12.7559057,9.65197217 12.908506,9.02249572 13.2158262,8.45978193 C13.6778661,7.61306193 14.4419276,6.9973619 15.368127,6.72501267 C15.7051194,6.62645827 16.0495299,6.57665121 16.391821,6.57665121 Z" id="Shape"></path>
                    <path d="M31.5204502,13.8972291 L26.425294,13.8972291 L32.1234335,5.5275238 C32.2315254,5.36962483 32.2421227,5.1661577 32.1531058,4.99660175 C32.0640889,4.82704581 31.8892343,4.72213307 31.6974242,4.72213307 L24.4531464,4.72213307 C23.9720314,4.72213307 23.580993,5.11317146 23.580993,5.59428646 C23.580993,6.07540145 23.9720314,6.46643985 24.4531464,6.46643985 L29.3077451,6.46643985 L23.6117251,14.8361452 C23.5036331,14.9951039 23.4930359,15.198571 23.5820528,15.3670672 C23.6710696,15.5366232 23.8459242,15.6404762 24.0377344,15.6404762 L31.5193904,15.6404762 C32.0005054,15.6404762 32.391546,15.2494378 32.391546,14.7683228 C32.3926036,14.2893273 32.0015652,13.8972291 31.5204502,13.8972291 Z" id="Path"></path>
                    <path d="M42.8086372,13.8972291 L37.7145408,13.8972291 L43.4116205,5.5275238 C43.5197124,5.36962483 43.5303097,5.1661577 43.4412928,4.99660175 C43.3522759,4.82810553 43.1774214,4.72319279 42.9856112,4.72319279 L35.7423932,4.72319279 C35.2612782,4.72319279 34.8702398,5.11423119 34.8702398,5.59534618 C34.8702398,6.07646118 35.2612782,6.46749957 35.7423932,6.46749957 L40.5969918,6.46749957 L34.9009718,14.8372049 C34.7939396,14.9961636 34.7822827,15.1996307 34.8712995,15.368127 C34.9613761,15.5376829 35.135171,15.6415359 35.3269811,15.6415359 L42.8086372,15.6415359 C43.2897522,15.6415359 43.6807906,15.2504975 43.6807906,14.7693825 C43.6807906,14.2893273 43.2897522,13.8972291 42.8086372,13.8972291 Z" id="Path"></path>
                    <path d="M47.8391501,-1.0658141e-14 C47.3580351,-1.0658141e-14 46.9669967,0.391038398 46.9669967,0.872153392 L46.9669967,14.8001145 C46.9669967,15.2812295 47.3580351,15.6722679 47.8391501,15.6722679 C48.3202651,15.6722679 48.7113035,15.2801698 48.7113035,14.8001145 L48.7113035,0.872153392 C48.7113035,0.391038398 48.3202651,-1.0658141e-14 47.8391501,-1.0658141e-14 Z" id="Path"></path>
                    <path d="M62.1464927,8.65583099 C62.0002507,8.15140205 61.779828,7.67028706 61.4937023,7.2252027 C61.0030498,6.46538013 60.3205871,5.83166478 59.520495,5.39293877 C58.2551838,4.70305802 56.7471956,4.54092015 55.3568368,4.94573497 C53.9537614,5.35478869 52.7954824,6.28734638 52.0950044,7.57279239 C51.3966458,8.85082033 51.2366274,10.3248973 51.6414422,11.7237339 L51.6456811,11.73857 C51.7389369,12.0490693 51.888358,12.4475258 51.8915372,12.4549439 C52.3567563,13.5443408 53.1367137,14.375165 54.2737982,14.9972233 C55.0770695,15.4370091 55.9810147,15.6690888 56.888139,15.6690888 C57.4084638,15.6690888 57.9298483,15.5938483 58.435337,15.4444271 C59.5045991,15.1318084 60.4371568,14.5150486 61.140814,13.6492536 L61.1863822,13.5909687 C61.3665354,13.3631279 61.5286732,13.120451 61.6685569,12.8703559 C61.9197116,12.4220924 61.7586335,11.8530203 61.31037,11.6018655 C61.171546,11.5245056 61.0147068,11.4831764 60.8557481,11.4831764 C60.5176959,11.4831764 60.2061369,11.665449 60.0418795,11.9600525 C59.8119193,12.3722854 59.5067186,12.7294126 59.1368747,13.0218966 C59.1040232,13.04733 59.0743509,13.0748828 59.0573953,13.0939578 C58.716164,13.3482918 58.3304242,13.5390422 57.911833,13.6619703 C56.9994101,13.9300806 56.0022092,13.8230484 55.1618475,13.3652474 C54.6076115,13.0632258 54.1434521,12.6149623 53.8149375,12.0660249 L61.5170163,9.80563224 C62.0076688,9.66150969 62.2895555,9.14542378 62.1464927,8.65583099 Z M56.9029751,6.57665121 C57.4985404,6.57665121 58.0951654,6.73031129 58.6292666,7.02067584 C59.1559497,7.30786123 59.6063327,7.72645247 59.9337876,8.22982168 C59.951803,8.25843424 59.970878,8.28810653 59.9888933,8.31777882 L53.2840154,10.2846278 C53.2670598,9.65091244 53.4196602,9.02249572 53.7269803,8.45978193 C54.1890203,7.61306193 54.9530818,6.9973619 55.8792811,6.72501267 C56.2152138,6.62645827 56.5596243,6.57665121 56.9029751,6.57665121 Z" id="Shape"></path>
                    <path d="M8.20862718,10.7922359 C7.95005437,10.4139142 7.57597156,10.0981162 7.09909547,9.85437957 C6.3180784,9.45698283 5.30604135,9.27471019 4.33533357,9.12316956 L4.18167349,9.09985562 C3.50027054,8.99388315 2.79555364,8.88367179 2.34305121,8.65477126 C2.00076015,8.48097642 1.87889181,8.28598708 1.87889181,7.90554593 C1.87889181,7.1690373 2.68110338,6.61374158 3.74400721,6.61374158 C5.01355735,6.61374158 5.72145342,6.98464521 6.51624691,7.46893937 C6.66354864,7.55901597 6.83310458,7.60670358 7.00477997,7.60670358 C7.33541407,7.60670358 7.63531615,7.43926708 7.80805126,7.15738033 C7.9383974,6.94331594 7.97866693,6.69110148 7.91932235,6.44630508 C7.85997777,6.20256841 7.70949687,5.9959221 7.49543249,5.86557597 C7.05564676,5.59640591 6.57453176,5.3166386 5.96730954,5.09833532 C5.28378713,4.85353892 4.55681602,4.73379004 3.74506693,4.73379004 C2.76588135,4.73379004 1.84921952,5.03157267 1.16569712,5.57203224 C0.41435234,6.16547805 1.77635684e-15,6.99418273 1.77635684e-15,7.90554593 C1.77635684e-15,8.99706233 0.517145632,9.83636426 1.49527149,10.3312557 C2.21376481,10.6947412 3.06790288,10.8272068 3.89342839,10.9554335 L4.04602874,10.9787474 C6.1633586,11.3104413 6.77587945,11.6092836 6.77587945,12.3097616 C6.77587945,13.1776761 5.90690523,13.7456885 4.56211464,13.7573455 L4.51336731,13.7573455 C3.07002233,13.7573455 2.26039269,13.2031095 1.82590558,12.9053269 C1.75384431,12.8565795 1.69238028,12.8131308 1.63091625,12.7749807 C1.48149507,12.681725 1.30981967,12.6329776 1.13390538,12.6329776 C0.807510188,12.6329776 0.508667835,12.7982947 0.335932716,13.0748828 C0.06146403,13.5146685 0.196049061,14.0953976 0.635834793,14.3698663 C0.660208461,14.3847025 0.697298824,14.4101359 0.738628085,14.4387484 L0.764061477,14.455704 C1.28014738,14.8085923 2.48823349,15.637297 4.51336731,15.637297 L4.57801051,15.637297 C5.74582708,15.6266998 6.74832661,15.3130213 7.47953662,14.7280533 C8.23723975,14.120831 8.65477126,13.2624541 8.65477126,12.3108213 C8.65371154,11.7332714 8.50323064,11.2235438 8.20862718,10.7922359 Z" id="Path"></path>
                </g>
            </g>
            <path d="M92.042168,17 C92.2108347,17 92.3483347,16.945 92.454668,16.835 C92.5610013,16.725 92.614168,16.5893333 92.614168,16.428 L92.614168,16.428 L92.614168,14.019 L94.242168,14.019 C94.792168,14.019 95.2798347,13.9016667 95.705168,13.667 C96.1305013,13.4323333 96.4623347,13.106 96.700668,12.688 C96.9390013,12.27 97.058168,11.7933333 97.058168,11.258 C97.058168,10.7006667 96.9390013,10.2075 96.700668,9.7785 C96.4623347,9.3495 96.1305013,9.014 95.705168,8.772 C95.2798347,8.53 94.792168,8.409 94.242168,8.409 L94.242168,8.409 L92.042168,8.409 C91.8808347,8.409 91.745168,8.46216667 91.635168,8.5685 C91.525168,8.67483333 91.470168,8.81233333 91.470168,8.981 L91.470168,8.981 L91.470168,16.428 C91.470168,16.5893333 91.525168,16.725 91.635168,16.835 C91.745168,16.945 91.8808347,17 92.042168,17 Z M94.242168,12.963 L92.614168,12.963 L92.614168,9.465 L94.242168,9.465 C94.5795013,9.465 94.8765013,9.542 95.133168,9.696 C95.3898347,9.85 95.5915013,10.0608333 95.738168,10.3285 C95.8848347,10.5961667 95.958168,10.906 95.958168,11.258 C95.958168,11.588 95.8848347,11.8813333 95.738168,12.138 C95.5915013,12.3946667 95.3898347,12.5963333 95.133168,12.743 C94.8765013,12.8896667 94.5795013,12.963 94.242168,12.963 L94.242168,12.963 Z M100.397464,17.044 C100.932797,17.044 101.413131,16.9101667 101.838464,16.6425 C102.081512,16.4895476 102.295226,16.305466 102.479607,16.0902551 L102.52,16.04 L102.520464,16.45 C102.520464,16.5790667 102.554491,16.6905333 102.622544,16.7844 L102.679964,16.8515 C102.786297,16.9578333 102.920131,17.011 103.081464,17.011 C103.242797,17.011 103.376631,16.9578333 103.482964,16.8515 C103.589297,16.7451667 103.642464,16.6113333 103.642464,16.45 L103.642464,16.45 L103.642464,13.997 C103.642464,13.4176667 103.508631,12.897 103.240964,12.435 C102.973297,11.973 102.612131,11.6081667 102.157464,11.3405 C101.702797,11.0728333 101.189464,10.939 100.617464,10.939 C100.045464,10.939 99.5302973,11.0728333 99.071964,11.3405 C98.6136307,11.6081667 98.2506307,11.973 97.982964,12.435 C97.7152973,12.897 97.581464,13.4176667 97.581464,13.997 C97.581464,14.5763333 97.7042973,15.0951667 97.949964,15.5535 C98.1956307,16.0118333 98.5311307,16.3748333 98.956464,16.6425 C99.3817973,16.9101667 99.8621307,17.044 100.397464,17.044 Z M100.617464,16.054 C100.250797,16.054 99.918964,15.9641667 99.621964,15.7845 C99.324964,15.6048333 99.0902973,15.3591667 98.917964,15.0475 C98.7456307,14.7358333 98.659464,14.3856667 98.659464,13.997 C98.659464,13.601 98.7456307,13.2471667 98.917964,12.9355 C99.0902973,12.6238333 99.324964,12.3781667 99.621964,12.1985 C99.918964,12.0188333 100.250797,11.929 100.617464,11.929 C100.991464,11.929 101.325131,12.0188333 101.618464,12.1985 C101.911797,12.3781667 102.142797,12.6238333 102.311464,12.9355 C102.480131,13.2471667 102.564464,13.601 102.564464,13.997 C102.564464,14.3856667 102.480131,14.7358333 102.311464,15.0475 C102.142797,15.3591667 101.911797,15.6048333 101.618464,15.7845 C101.325131,15.9641667 100.991464,16.054 100.617464,16.054 Z M106.28876,19.64 C106.48676,19.64 106.62976,19.5263333 106.71776,19.299 L106.71776,19.299 L110.08376,11.731 C110.230427,11.4083333 110.13876,11.1773333 109.80876,11.038 C109.493427,10.906 109.262427,10.994 109.11576,11.302 L109.11576,11.302 L107.347,15.296 L105.33176,11.291 C105.27896,11.1795333 105.207387,11.0974 105.11704,11.0446 L105.04576,11.0105 C104.921093,10.9628333 104.789093,10.9683333 104.64976,11.027 C104.510427,11.0856667 104.41326,11.1791667 104.35826,11.3075 C104.30326,11.4358333 104.312427,11.5696667 104.38576,11.709 L104.38576,11.709 L106.857,16.404 L105.76076,18.881 C105.63039,19.1612963 105.685435,19.3749588 105.925896,19.5219877 L106.02476,19.574 C106.127427,19.618 106.215427,19.64 106.28876,19.64 Z M115.607352,17 C115.827352,17 116.007019,16.9486667 116.146352,16.846 C116.285685,16.7433333 116.355352,16.6113333 116.355352,16.45 C116.355352,16.2886667 116.309519,16.1566667 116.217852,16.054 C116.126185,15.9513333 116.007019,15.9 115.860352,15.9 L115.860352,15.9 L115.585352,15.9 C115.424019,15.9 115.292019,15.812 115.189352,15.636 C115.086685,15.46 115.035352,15.2363333 115.035352,14.965 L115.035352,14.965 L115.035352,8.959 C115.035352,8.79766667 114.984019,8.66566667 114.881352,8.563 C114.778685,8.46033333 114.646685,8.409 114.485352,8.409 C114.324019,8.409 114.192019,8.46033333 114.089352,8.563 C113.986685,8.66566667 113.935352,8.79766667 113.935352,8.959 L113.935352,8.959 L113.935352,14.965 C113.935352,15.361 114.005019,15.7111667 114.144352,16.0155 C114.283685,16.3198333 114.478019,16.56 114.727352,16.736 C114.976685,16.912 115.262685,17 115.585352,17 L115.585352,17 L115.607352,17 Z M119.529648,17.044 C120.064981,17.044 120.545315,16.9101667 120.970648,16.6425 C121.213696,16.4895476 121.42741,16.305466 121.611791,16.0902551 L121.652,16.04 L121.652648,16.45 C121.652648,16.5790667 121.686675,16.6905333 121.754728,16.7844 L121.812148,16.8515 C121.918481,16.9578333 122.052315,17.011 122.213648,17.011 C122.374981,17.011 122.508815,16.9578333 122.615148,16.8515 C122.721481,16.7451667 122.774648,16.6113333 122.774648,16.45 L122.774648,16.45 L122.774648,13.997 C122.774648,13.4176667 122.640815,12.897 122.373148,12.435 C122.105481,11.973 121.744315,11.6081667 121.289648,11.3405 C120.834981,11.0728333 120.321648,10.939 119.749648,10.939 C119.177648,10.939 118.662481,11.0728333 118.204148,11.3405 C117.745815,11.6081667 117.382815,11.973 117.115148,12.435 C116.847481,12.897 116.713648,13.4176667 116.713648,13.997 C116.713648,14.5763333 116.836481,15.0951667 117.082148,15.5535 C117.327815,16.0118333 117.663315,16.3748333 118.088648,16.6425 C118.513981,16.9101667 118.994315,17.044 119.529648,17.044 Z M119.749648,16.054 C119.382981,16.054 119.051148,15.9641667 118.754148,15.7845 C118.457148,15.6048333 118.222481,15.3591667 118.050148,15.0475 C117.877815,14.7358333 117.791648,14.3856667 117.791648,13.997 C117.791648,13.601 117.877815,13.2471667 118.050148,12.9355 C118.222481,12.6238333 118.457148,12.3781667 118.754148,12.1985 C119.051148,12.0188333 119.382981,11.929 119.749648,11.929 C120.123648,11.929 120.457315,12.0188333 120.750648,12.1985 C121.043981,12.3781667 121.274981,12.6238333 121.443648,12.9355 C121.612315,13.2471667 121.696648,13.601 121.696648,13.997 C121.696648,14.3856667 121.612315,14.7358333 121.443648,15.0475 C121.274981,15.3591667 121.043981,15.6048333 120.750648,15.7845 C120.457315,15.9641667 120.123648,16.054 119.749648,16.054 Z M126.729944,17 C126.920611,17 127.076444,16.9486667 127.197444,16.846 C127.318444,16.7433333 127.378944,16.6113333 127.378944,16.45 C127.378944,16.2886667 127.333111,16.1566667 127.241444,16.054 C127.149777,15.9513333 127.037944,15.9 126.905944,15.9 L126.905944,15.9 L126.531944,15.9 C126.297277,15.9 126.099277,15.801 125.937944,15.603 C125.776611,15.405 125.695944,15.1593333 125.695944,14.866 L125.695944,14.866 L125.695,12.149 L126.630944,12.149 C126.746444,12.149 126.845444,12.12425 126.927944,12.07475 L127.004944,12.017 C127.100277,11.929 127.147944,11.819 127.147944,11.687 C127.147944,11.5403333 127.100277,11.423 127.004944,11.335 C126.909611,11.247 126.784944,11.203 126.630944,11.203 L126.630944,11.203 L125.695,11.203 L125.695944,9.619 C125.695944,9.48993333 125.663091,9.37964 125.597384,9.28812 L125.541944,9.223 C125.439277,9.12033333 125.307277,9.069 125.145944,9.069 C124.984611,9.069 124.852611,9.12033333 124.749944,9.223 C124.647277,9.32566667 124.595944,9.45766667 124.595944,9.619 L124.595944,9.619 L124.595,11.203 L124.089944,11.203 C123.974444,11.203 123.875444,11.22775 123.792944,11.27725 L123.715944,11.335 C123.620611,11.423 123.572944,11.5403333 123.572944,11.687 C123.572944,11.819 123.620611,11.929 123.715944,12.017 C123.811277,12.105 123.935944,12.149 124.089944,12.149 L124.089944,12.149 L124.595,12.149 L124.595944,14.866 C124.595944,15.2021111 124.654509,15.510213 124.771638,15.7903056 L124.848944,15.955 C125.017611,16.2776667 125.248611,16.5325 125.541944,16.7195 C125.835277,16.9065 126.165277,17 126.531944,17 L126.531944,17 L126.729944,17 Z M131.47724,17.044 C131.814573,17.044 132.168407,16.9816667 132.53874,16.857 C132.909073,16.7323333 133.218907,16.571 133.46824,16.373 C133.592907,16.2776667 133.651573,16.164 133.64424,16.032 C133.636907,15.9 133.570907,15.779 133.44624,15.669 C133.350907,15.5883333 133.239073,15.5498333 133.11074,15.5535 C132.982407,15.5571667 132.86324,15.5993333 132.75324,15.68 C132.606573,15.79 132.414073,15.8871667 132.17574,15.9715 C131.937407,16.0558333 131.704573,16.098 131.47724,16.098 C131.05924,16.098 130.688907,16.0063333 130.36624,15.823 C130.043573,15.6396667 129.790573,15.3903333 129.60724,15.075 C129.485018,14.8647778 129.403536,14.635 129.362796,14.3856667 L129.362,14.382 L133.54524,14.382 C133.65524,14.382 133.750802,14.3562187 133.831928,14.3046562 L133.90824,14.2445 C134.003573,14.1528333 134.05124,14.0373333 134.05124,13.898 C134.05124,13.3186667 133.943073,12.8071667 133.72674,12.3635 C133.510407,11.9198333 133.196907,11.5715 132.78624,11.3185 C132.375573,11.0655 131.88424,10.939 131.31224,10.939 C130.732907,10.939 130.219573,11.0691667 129.77224,11.3295 C129.324907,11.5898333 128.97474,11.9491667 128.72174,12.4075 C128.46874,12.8658333 128.34224,13.3956667 128.34224,13.997 C128.34224,14.591 128.476073,15.1171667 128.74374,15.5755 C129.011407,16.0338333 129.38174,16.3931667 129.85474,16.6535 C130.32774,16.9138333 130.868573,17.044 131.47724,17.044 Z M133.035,13.503 L129.376,13.503 L129.4154,13.31654 C129.43388,13.2459933 129.45544,13.1771333 129.48008,13.10996 L129.56324,12.9135 C129.71724,12.5945 129.94274,12.3433333 130.23974,12.16 C130.53674,11.9766667 130.89424,11.885 131.31224,11.885 C131.678907,11.885 131.990573,11.9693333 132.24724,12.138 C132.503907,12.3066667 132.701907,12.5358333 132.84124,12.8255 C132.92484,12.9993 132.98468,13.18696 133.02076,13.38848 L133.035,13.503 Z M136.477536,11.533 C136.477536,11.3496667 136.431703,11.2121667 136.340036,11.1205 C136.248369,11.0288333 136.110869,10.983 135.927536,10.983 C135.751536,10.983 135.615869,11.0306667 135.520536,11.126 C135.425203,11.2213333 135.377536,11.357 135.377536,11.533 L135.377536,11.533 L135.377536,16.45 C135.377536,16.6333333 135.425203,16.7708333 135.520536,16.8625 C135.615869,16.9541667 135.751536,17 135.927536,17 C136.110869,17 136.248369,16.9523333 136.340036,16.857 C136.431703,16.7616667 136.477536,16.626 136.477536,16.45 L136.477536,16.45 L136.477,13.238 L136.484158,13.0970204 C136.506233,12.8680408 136.583495,12.6689932 136.715944,12.4998776 L136.802036,12.402 C137.018369,12.182 137.313536,12.0316667 137.687536,11.951 C138.061536,11.8703333 138.483203,11.8776667 138.952536,11.973 C139.047869,11.995 139.135869,11.9986667 139.216536,11.984 C139.297203,11.9693333 139.368703,11.9345 139.431036,11.8795 C139.493369,11.8245 139.535536,11.7456667 139.557536,11.643 C139.608869,11.445 139.526369,11.2745 139.310036,11.1315 C139.093703,10.9885 138.765536,10.917 138.325536,10.917 C137.885536,10.917 137.482203,11.0196667 137.115536,11.225 C136.871092,11.3618889 136.660055,11.5305556 136.482425,11.731 L136.477,11.738 L136.477536,11.533 Z" id="Paylater" stroke="#382757" stroke-width="0.2" fill="#382757"></path>
        </g>
    </g>
</svg>